<svg width="200" height="200" viewBox="0 0 200 200" fill="none" xmlns="http://www.w3.org/2000/svg">
<path fill-rule="evenodd" clip-rule="evenodd" d="M99.9998 58.3334C104.602 58.3334 108.333 62.0643 108.333 66.6667V100C108.333 104.602 104.602 108.333 99.9998 108.333C95.3975 108.333 91.6665 104.602 91.6665 100V66.6667C91.6665 62.0643 95.3975 58.3334 99.9998 58.3334Z" fill="#FF3232"/>
<path fill-rule="evenodd" clip-rule="evenodd" d="M99.9998 125C104.602 125 108.333 128.731 108.333 133.333V133.496C108.333 138.098 104.602 141.829 99.9998 141.829C95.3975 141.829 91.6665 138.098 91.6665 133.496V133.333C91.6665 128.731 95.3975 125 99.9998 125Z" fill="#FF3232"/>
<path fill-rule="evenodd" clip-rule="evenodd" d="M100 25C58.5788 25 25.0002 58.5787 25.0002 100C25.0002 141.421 58.5788 175 100 175C141.422 175 175 141.421 175 100C175 58.5787 141.422 25 100 25ZM8.3335 100C8.3335 49.3739 49.3741 8.33337 100 8.33337C150.626 8.33337 191.667 49.3739 191.667 100C191.667 150.626 150.626 191.667 100 191.667C49.3741 191.667 8.3335 150.626 8.3335 100Z" fill="#FF3232"/>
</svg>
