<?xml version="1.0" encoding="UTF-8"?>
<svg id="Layer_2" data-name="Layer 2" xmlns="http://www.w3.org/2000/svg" viewBox="0 0 285.7 180.25">
  <defs>
    <style>
      .cls-1 {
        fill: #fff;
        stroke-width: 0px;
      }
    </style>
  </defs>
  <g id="Layer_1-2" data-name="Layer 1">
    <g>
      <g>
        <g>
          <path class="cls-1" d="M36.99,75.78l7.83-29.57h1.46l-8.57,32.34h-1.46l-8.55-32.34h1.46l7.83,29.57ZM37.97,68.61l-.66,2.77-6.68-25.18h1.45l5.9,22.4ZM39.43,63.2l-.72,2.7-5.18-19.69h1.43l4.47,16.99ZM40.9,57.6l-.74,2.73-3.73-14.12h1.46l3.01,11.39ZM40.62,78.55h-1.45l8.57-32.34h1.43l-8.55,32.34ZM43.53,78.55h-1.45l8.55-32.34h1.45l-8.55,32.34ZM46.46,78.55h-1.46l8.55-32.3-.02-.04h1.48v.04l3.81,13.12,3.5-13.16h1.46l-8.57,32.34h-1.46l-3.83-13.11-3.46,13.11ZM50.66,62.69l3.79,13.2.74-2.79-3.81-13.16-.72,2.75ZM52.11,57.19l3.81,13.16.74-2.75-3.81-13.18-.74,2.77ZM53.55,51.72l3.83,13.16.72-2.77-3.79-13.2-.76,2.81ZM58.12,78.55h-1.45l8.57-32.34h1.43l-8.55,32.34ZM61.03,78.55h-1.45l8.55-32.34h1.45l-8.55,32.34ZM63.96,78.55h-1.46l8.55-32.34h1.46l-8.55,32.34Z"/>
          <path class="cls-1" d="M76.58,78.55h-1.41v-28.12h1.41v28.12ZM79.39,78.55h-1.41v-28.12h1.41v28.12ZM82.2,78.55h-1.41v-28.12h1.41v28.12ZM85.02,71.52h13.46v1.41h-13.46v1.41h13.46v1.41h-13.46v1.41h13.46v1.41h-14.86v-28.12h14.86v1.41h-13.46v1.41h13.46v1.41h-13.46v1.41h13.46v1.41h-13.46v3.5h12.68v1.41h-12.68v1.41h12.68v1.41h-12.68v1.41h12.68v1.41h-12.68v3.54Z"/>
          <path class="cls-1" d="M101.85,50.43h1.41v28.12h-1.41v-28.12ZM104.67,50.43h1.41v28.12h-1.41v-28.12ZM107.48,50.43h1.41v28.12h-1.41v-28.12ZM110.29,50.43h1.41v21.09h10.37v1.41h-10.37v1.41h10.37v1.41h-10.37v1.41h10.37v1.41h-11.78v-28.12Z"/>
          <path class="cls-1" d="M151.99,54.84l-1.13.84c-1.32-1.63-2.93-2.91-4.83-3.85-1.91-.94-3.95-1.41-6.12-1.41-1.9,0-3.72.37-5.46,1.11s-3.24,1.74-4.49,3-2.26,2.75-3,4.49-1.11,3.56-1.11,5.46.37,3.72,1.11,5.46,1.74,3.24,3,4.49c1.26,1.26,2.75,2.26,4.49,3s3.56,1.11,5.46,1.11c2.17,0,4.22-.47,6.12-1.41,1.91-.94,3.52-2.22,4.83-3.85l1.11.86c-1.45,1.8-3.22,3.21-5.32,4.25-2.1,1.04-4.35,1.55-6.75,1.55-2.1,0-4.1-.41-6.01-1.23-1.91-.82-3.55-1.92-4.93-3.3-1.38-1.38-2.48-3.02-3.3-4.93-.82-1.91-1.23-3.91-1.23-6.01s.41-4.1,1.23-6.01c.82-1.91,1.92-3.55,3.3-4.93s3.02-2.48,4.93-3.3c1.91-.82,3.91-1.23,6.01-1.23,2.4,0,4.65.52,6.76,1.55s3.89,2.46,5.33,4.27ZM149.8,56.6l-1.09.88c-1.05-1.31-2.35-2.35-3.89-3.11-1.54-.75-3.18-1.13-4.92-1.13-1.52,0-2.98.3-4.37.89-1.39.59-2.58,1.39-3.59,2.4s-1.81,2.21-2.4,3.59c-.59,1.39-.89,2.84-.89,4.37s.3,2.98.89,4.37c.59,1.39,1.39,2.58,2.4,3.59,1.01,1.01,2.21,1.81,3.59,2.4,1.39.59,2.84.89,4.37.89,1.74,0,3.39-.38,4.92-1.13,1.54-.75,2.83-1.79,3.89-3.11l1.05.92c-1.19,1.47-2.64,2.63-4.36,3.47s-3.55,1.26-5.51,1.26c-1.72,0-3.36-.33-4.92-1.01-1.56-.67-2.91-1.57-4.03-2.7-1.13-1.13-2.02-2.47-2.7-4.03-.67-1.56-1.01-3.2-1.01-4.92s.33-3.36,1.01-4.92c.67-1.56,1.57-2.91,2.7-4.03s2.47-2.02,4.03-2.7c1.56-.67,3.2-1.01,4.92-1.01,1.97,0,3.81.42,5.54,1.27,1.73.85,3.18,2.01,4.37,3.5ZM147.6,58.36l-1.11.86c-.78-.99-1.75-1.76-2.9-2.32-1.15-.56-2.38-.84-3.68-.84-2.33,0-4.32.83-5.97,2.48-1.65,1.65-2.47,3.64-2.47,5.96s.82,4.3,2.47,5.96c1.65,1.65,3.64,2.48,5.97,2.48,1.3,0,2.53-.28,3.69-.85,1.16-.57,2.13-1.34,2.91-2.33l1.07.9c-.91,1.15-2.04,2.05-3.38,2.71-1.34.66-2.77.99-4.3.99-1.78,0-3.43-.44-4.94-1.32-1.51-.88-2.71-2.07-3.58-3.58-.88-1.51-1.32-3.16-1.32-4.94s.44-3.43,1.32-4.94c.88-1.51,2.07-2.71,3.58-3.58,1.51-.88,3.16-1.32,4.94-1.32,1.52,0,2.96.33,4.31.99,1.35.66,2.48,1.57,3.39,2.72ZM145.41,60.12l-1.13.86c-1.13-1.41-2.59-2.11-4.38-2.11-1.55,0-2.87.55-3.97,1.65s-1.65,2.43-1.65,3.97.55,2.87,1.65,3.97c1.1,1.1,2.42,1.65,3.97,1.65.87,0,1.69-.19,2.45-.57.76-.38,1.41-.9,1.94-1.56l1.09.92c-.65.82-1.46,1.46-2.42,1.92-.96.46-1.99.69-3.07.69-1.94,0-3.6-.69-4.97-2.06-1.37-1.37-2.06-3.03-2.06-4.97s.69-3.6,2.06-4.97,3.03-2.06,4.97-2.06c1.09,0,2.12.24,3.09.71.96.48,1.77,1.12,2.42,1.94Z"/>
          <path class="cls-1" d="M155.13,70.5c-.82-1.91-1.23-3.91-1.23-6.01s.41-4.1,1.23-6.01c.82-1.91,1.92-3.55,3.3-4.93s3.02-2.48,4.93-3.3c1.91-.82,3.91-1.23,6.01-1.23s4.1.41,6.01,1.23,3.55,1.92,4.93,3.3c1.38,1.38,2.48,3.02,3.3,4.93.82,1.91,1.23,3.91,1.23,6.01s-.41,4.1-1.23,6.01c-.82,1.91-1.92,3.55-3.3,4.93-1.38,1.38-3.02,2.48-4.93,3.3s-3.91,1.23-6.01,1.23-4.1-.41-6.01-1.23c-1.91-.82-3.55-1.92-4.93-3.3-1.38-1.38-2.48-3.02-3.3-4.93ZM156.42,59.03c-.74,1.74-1.11,3.56-1.11,5.46s.37,3.72,1.11,5.46,1.74,3.24,3,4.49c1.26,1.26,2.75,2.26,4.49,3s3.56,1.11,5.46,1.11,3.72-.37,5.46-1.11c1.74-.74,3.24-1.74,4.49-3,1.26-1.26,2.26-2.75,3-4.49s1.11-3.56,1.11-5.46-.37-3.72-1.11-5.46-1.74-3.24-3-4.49c-1.26-1.26-2.75-2.26-4.49-3-1.74-.74-3.56-1.11-5.46-1.11s-3.72.37-5.46,1.11-3.24,1.74-4.49,3-2.26,2.75-3,4.49ZM157.72,69.41c-.67-1.56-1.01-3.2-1.01-4.92s.33-3.36,1.01-4.92c.67-1.56,1.57-2.91,2.7-4.03s2.47-2.02,4.03-2.7c1.56-.67,3.2-1.01,4.92-1.01s3.36.34,4.92,1.01c1.56.67,2.91,1.57,4.03,2.7,1.13,1.13,2.02,2.47,2.7,4.03s1.01,3.2,1.01,4.92-.33,3.36-1.01,4.92-1.57,2.91-2.7,4.03c-1.13,1.13-2.47,2.02-4.03,2.7-1.56.67-3.2,1.01-4.92,1.01s-3.36-.33-4.92-1.01c-1.56-.67-2.91-1.57-4.03-2.7-1.13-1.13-2.02-2.47-2.7-4.03ZM159.01,60.13c-.59,1.39-.89,2.84-.89,4.37s.3,2.98.89,4.37c.59,1.39,1.39,2.58,2.4,3.59,1.01,1.01,2.21,1.81,3.59,2.4,1.39.59,2.84.89,4.37.89s2.98-.3,4.37-.89c1.39-.59,2.58-1.39,3.59-2.4,1.01-1.01,1.81-2.21,2.4-3.59s.89-2.84.89-4.37-.3-2.98-.89-4.37-1.39-2.58-2.4-3.59c-1.01-1.01-2.21-1.81-3.59-2.4-1.39-.59-2.84-.89-4.37-.89s-2.98.3-4.37.89c-1.39.59-2.58,1.39-3.59,2.4s-1.81,2.21-2.4,3.59ZM160.85,69.43c-.88-1.51-1.32-3.16-1.32-4.94s.44-3.43,1.32-4.94c.88-1.51,2.07-2.71,3.58-3.58,1.51-.88,3.16-1.32,4.94-1.32s3.43.44,4.94,1.32c1.51.88,2.71,2.07,3.58,3.58.88,1.51,1.32,3.16,1.32,4.94s-.44,3.43-1.32,4.94c-.88,1.51-2.07,2.71-3.58,3.58-1.51.88-3.16,1.32-4.94,1.32s-3.43-.44-4.94-1.32c-1.51-.88-2.71-2.07-3.58-3.58ZM163.41,58.53c-1.65,1.65-2.47,3.64-2.47,5.96s.82,4.3,2.47,5.96c1.65,1.65,3.64,2.48,5.97,2.48s4.32-.83,5.97-2.48c1.65-1.65,2.47-3.64,2.47-5.96s-.82-4.3-2.47-5.96c-1.65-1.65-3.64-2.48-5.97-2.48s-4.32.83-5.97,2.48ZM164.4,69.46c-1.37-1.37-2.06-3.03-2.06-4.97s.69-3.6,2.06-4.97,3.03-2.06,4.97-2.06,3.6.69,4.97,2.06c1.37,1.37,2.06,3.03,2.06,4.97s-.69,3.6-2.06,4.97-3.03,2.06-4.97,2.06-3.6-.69-4.97-2.06ZM165.4,60.52c-1.1,1.1-1.65,2.43-1.65,3.97s.55,2.87,1.65,3.97c1.1,1.1,2.42,1.65,3.97,1.65s2.87-.55,3.97-1.65,1.65-2.42,1.65-3.97-.55-2.87-1.65-3.97c-1.1-1.1-2.43-1.65-3.97-1.65s-2.87.55-3.97,1.65Z"/>
          <path class="cls-1" d="M214.39,78.55h-1.41v-17.58c0-1.42-.32-2.78-.95-4.08-.63-1.3-1.48-2.42-2.55-3.37-1.07-.94-2.34-1.7-3.81-2.26-1.47-.56-3.01-.84-4.61-.84-2.2,0-4.2.41-5.99,1.24-1.79.83-3.23,2.05-4.31,3.67s-1.62,3.5-1.62,5.63v17.58h-1.41v-17.58c0-1.8.35-3.45,1.05-4.96.7-1.51,1.66-2.77,2.86-3.79s2.62-1.8,4.24-2.36c1.62-.56,3.34-.84,5.17-.84,3.23,0,6.03.81,8.4,2.44,2.37-1.63,5.17-2.44,8.4-2.44,1.82,0,3.54.28,5.17.84,1.62.56,3.03,1.35,4.24,2.36s2.16,2.28,2.86,3.79c.7,1.51,1.05,3.16,1.05,4.96v17.58h-1.41v-17.58c0-2.12-.54-3.99-1.62-5.62s-2.52-2.85-4.31-3.68c-1.79-.83-3.79-1.25-5.99-1.25-2.76,0-5.17.65-7.23,1.95.3.26.63.6,1,1.02,1.78-1.04,3.86-1.56,6.23-1.56,1.45,0,2.81.21,4.08.62,1.28.42,2.39,1.01,3.34,1.77s1.7,1.72,2.26,2.88c.55,1.16.83,2.45.83,3.87v17.58h-1.41v-17.58c0-1.22-.24-2.33-.71-3.32-.48-.99-1.13-1.8-1.96-2.44-.83-.64-1.8-1.13-2.89-1.46-1.09-.34-2.27-.51-3.54-.51-2.07,0-3.86.42-5.37,1.27.23.36.47.77.7,1.21,1.28-.72,2.83-1.07,4.67-1.07,1.45,0,2.74.22,3.88.67s2.06,1.16,2.76,2.14,1.05,2.15,1.05,3.52v17.58h-1.41v-17.58c0-1.65-.58-2.89-1.75-3.7-1.17-.81-2.68-1.22-4.54-1.22-1.69,0-3.07.31-4.12.94.17.5.3.96.39,1.41.82-.62,2.06-.94,3.73-.94,3.25,0,4.88,1.17,4.88,3.52v17.58h-1.41v-17.58c0-.38-.06-.7-.19-.97-.12-.27-.28-.47-.48-.62-.2-.14-.45-.26-.77-.34-.32-.08-.63-.14-.93-.16s-.67-.03-1.11-.03-.81,0-1.11.03-.61.07-.93.16c-.32.08-.58.2-.77.34-.2.14-.35.35-.48.62-.12.27-.19.59-.19.97v17.58ZM211.58,60.98v17.58h-1.41v-17.58c0-1.22-.24-2.33-.71-3.32-.48-.99-1.13-1.8-1.96-2.44-.83-.64-1.8-1.13-2.89-1.46-1.09-.34-2.27-.51-3.54-.51s-2.44.17-3.54.51c-1.09.34-2.06.83-2.89,1.46-.83.64-1.49,1.45-1.96,2.44-.48.99-.71,2.1-.71,3.32v17.58h-1.41v-17.58c0-1.42.28-2.71.83-3.87.55-1.16,1.31-2.12,2.26-2.88s2.06-1.35,3.34-1.77c1.28-.42,2.64-.62,4.08-.62s2.81.21,4.08.62c1.28.42,2.39,1.01,3.34,1.77s1.7,1.72,2.26,2.88c.55,1.16.83,2.45.83,3.87ZM208.77,60.98v17.58h-1.41v-17.58c0-1.65-.58-2.89-1.75-3.7-1.17-.81-2.68-1.22-4.54-1.22s-3.38.41-4.54,1.22c-1.17.81-1.75,2.05-1.75,3.7v17.58h-1.41v-17.58c0-1.37.35-2.54,1.05-3.52s1.62-1.69,2.76-2.14,2.43-.67,3.88-.67,2.74.22,3.88.67,2.06,1.16,2.76,2.14,1.05,2.15,1.05,3.52ZM205.96,60.98v17.58h-1.41v-17.58c0-.38-.06-.7-.19-.97-.12-.27-.28-.47-.48-.62-.2-.14-.45-.26-.77-.34-.32-.08-.63-.14-.93-.16s-.67-.03-1.11-.03-.81,0-1.11.03-.61.07-.93.16c-.32.08-.58.2-.77.34-.2.14-.35.35-.48.62-.12.27-.19.59-.19.97v17.58h-1.41v-17.58c0-2.34,1.63-3.52,4.88-3.52s4.88,1.17,4.88,3.52Z"/>
          <path class="cls-1" d="M236.11,78.55h-1.41v-28.12h1.41v28.12ZM238.92,78.55h-1.41v-28.12h1.41v28.12ZM241.74,78.55h-1.41v-28.12h1.41v28.12ZM244.55,71.52h13.46v1.41h-13.46v1.41h13.46v1.41h-13.46v1.41h13.46v1.41h-14.86v-28.12h14.86v1.41h-13.46v1.41h13.46v1.41h-13.46v1.41h13.46v1.41h-13.46v3.5h12.68v1.41h-12.68v1.41h12.68v1.41h-12.68v1.41h12.68v1.41h-12.68v3.54Z"/>
        </g>
        <g>
          <path class="cls-1" d="M60.72,116.57c1.16-1.55,1.74-3.22,1.74-5.02s-.47-3.4-1.4-4.91c-.93-1.52-2.18-2.72-3.76-3.61-1.58-.89-3.27-1.34-5.08-1.34h-18.28v30.94h-1.41v-32.34h19.69c2.06,0,3.98.51,5.77,1.52,1.79,1.02,3.22,2.39,4.28,4.13,1.06,1.74,1.59,3.61,1.59,5.62s-.54,3.59-1.62,5.04c1.08,1.5,1.62,3.02,1.62,4.57,0,1.75-.31,3.34-.94,4.79-.62,1.45-1.47,2.66-2.53,3.62-1.06.96-2.29,1.71-3.7,2.25-1.41.53-2.9.8-4.47.8h-9.06v-1.41h9.06c1.37,0,2.68-.26,3.93-.77,1.25-.51,2.34-1.21,3.26-2.1.92-.89,1.66-1.95,2.22-3.2.55-1.25.83-2.58.83-3.98,0-.62-.15-1.38-.44-2.26s-.73-1.66-1.3-2.33ZM61.05,111.55c0,1.82-.64,3.47-1.93,4.94,1.29,1.43,1.93,2.99,1.93,4.67s-.41,3.11-1.22,4.44c-.81,1.33-1.89,2.37-3.24,3.11-1.35.74-2.8,1.1-4.37,1.1h-9.06v-1.41h9.06c2.03,0,3.78-.68,5.23-2.04,1.46-1.36,2.19-3.1,2.19-5.21,0-.75-.19-1.59-.58-2.51-.38-.92-.92-1.62-1.59-2.1,1.45-1.35,2.17-3.02,2.17-5s-.74-3.55-2.23-4.95c-1.48-1.4-3.22-2.1-5.2-2.1h-15.47v28.12h-1.41v-29.53h16.88c1.55,0,3,.38,4.37,1.14,1.36.76,2.44,1.8,3.25,3.11.81,1.31,1.21,2.71,1.21,4.21ZM43.16,115.99h9.06c1.29,0,2.38-.39,3.27-1.16.89-.77,1.34-1.87,1.34-3.27,0-1.13-.47-2.12-1.4-2.97-.93-.85-2-1.27-3.21-1.27h-12.66v25.31h-1.41v-26.72h14.06c1.6,0,3,.56,4.21,1.69,1.2,1.13,1.81,2.44,1.81,3.96,0,1.19-.28,2.22-.83,3.11-.55.89-1.3,1.57-2.24,2.05,2.04.73,3.07,2.21,3.07,4.45,0,1.77-.59,3.19-1.76,4.25-1.17,1.06-2.59,1.59-4.26,1.59h-9.06v-1.41h9.06c1.29,0,2.38-.39,3.27-1.16.89-.77,1.34-1.87,1.34-3.27,0-.95-.34-1.79-1.02-2.52-.68-.73-1.67-1.15-2.99-1.27-.13.01-.33.02-.61.02h-9.06v-1.41ZM42.38,132.63h-1.41v-23.91h11.25c.89,0,1.64.27,2.27.81.62.54.94,1.21.94,2.02,0,1.07-.29,1.84-.88,2.31-.59.48-1.36.71-2.32.71h-9.06v-1.41h9.06c1.2,0,1.8-.54,1.8-1.62,0-.44-.17-.79-.51-1.04-.34-.25-.77-.38-1.29-.38h-9.84v22.5ZM54.02,121.36c0-.51-.15-.85-.46-1.02-.31-.17-.75-.25-1.34-.25h-9.06v-1.41h9.06c2.14,0,3.2.89,3.2,2.68,0,1-.29,1.73-.88,2.17-.59.44-1.36.66-2.32.66h-9.06v-1.41h9.06c1.2,0,1.8-.48,1.8-1.43Z"/>
          <path class="cls-1" d="M67.52,124.57c-.82-1.91-1.23-3.91-1.23-6.01s.41-4.1,1.23-6.01c.82-1.91,1.92-3.55,3.3-4.93s3.02-2.48,4.93-3.3c1.91-.82,3.91-1.23,6.01-1.23s4.1.41,6.01,1.23c1.91.82,3.55,1.92,4.93,3.3,1.38,1.38,2.48,3.02,3.3,4.93.82,1.91,1.23,3.91,1.23,6.01s-.41,4.1-1.23,6.01c-.82,1.91-1.92,3.55-3.3,4.93s-3.02,2.48-4.93,3.3c-1.91.82-3.91,1.23-6.01,1.23s-4.1-.41-6.01-1.23c-1.91-.82-3.55-1.92-4.93-3.3-1.38-1.38-2.48-3.02-3.3-4.93ZM68.81,113.11c-.74,1.74-1.11,3.56-1.11,5.46s.37,3.72,1.11,5.46,1.74,3.24,3,4.49c1.26,1.26,2.75,2.26,4.49,3s3.56,1.11,5.46,1.11,3.72-.37,5.46-1.11,3.24-1.74,4.49-3,2.26-2.75,3-4.49,1.11-3.56,1.11-5.46-.37-3.72-1.11-5.46-1.74-3.24-3-4.49c-1.26-1.26-2.75-2.26-4.49-3s-3.56-1.11-5.46-1.11-3.72.37-5.46,1.11-3.24,1.74-4.49,3-2.26,2.75-3,4.49ZM70.11,123.49c-.67-1.56-1.01-3.2-1.01-4.92s.33-3.36,1.01-4.92c.67-1.56,1.57-2.91,2.7-4.03s2.47-2.02,4.03-2.7c1.56-.67,3.2-1.01,4.92-1.01s3.36.34,4.92,1.01c1.56.67,2.91,1.57,4.03,2.7,1.13,1.13,2.02,2.47,2.7,4.03.67,1.56,1.01,3.2,1.01,4.92s-.34,3.36-1.01,4.92c-.67,1.56-1.57,2.91-2.7,4.03s-2.47,2.02-4.03,2.7c-1.56.67-3.2,1.01-4.92,1.01s-3.36-.33-4.92-1.01c-1.56-.67-2.91-1.57-4.03-2.7-1.13-1.13-2.02-2.47-2.7-4.03ZM71.39,114.2c-.59,1.39-.89,2.84-.89,4.37s.3,2.98.89,4.37c.59,1.39,1.39,2.58,2.4,3.59,1.01,1.01,2.21,1.81,3.59,2.4,1.39.59,2.84.89,4.37.89s2.98-.3,4.37-.89c1.39-.59,2.58-1.39,3.59-2.4s1.81-2.21,2.4-3.59c.59-1.39.89-2.84.89-4.37s-.3-2.98-.89-4.37c-.59-1.39-1.39-2.58-2.4-3.59-1.01-1.01-2.21-1.81-3.59-2.4-1.39-.59-2.84-.89-4.37-.89s-2.98.3-4.37.89c-1.39.59-2.58,1.39-3.59,2.4s-1.81,2.21-2.4,3.59ZM73.23,123.51c-.88-1.51-1.32-3.16-1.32-4.94s.44-3.43,1.32-4.94c.88-1.51,2.07-2.71,3.58-3.58,1.51-.88,3.16-1.32,4.94-1.32s3.43.44,4.94,1.32c1.51.88,2.71,2.07,3.58,3.58.88,1.51,1.32,3.16,1.32,4.94s-.44,3.43-1.32,4.94c-.88,1.51-2.07,2.71-3.58,3.58-1.51.88-3.16,1.32-4.94,1.32s-3.43-.44-4.94-1.32c-1.51-.88-2.71-2.07-3.58-3.58ZM75.79,112.61c-1.65,1.65-2.47,3.64-2.47,5.96s.82,4.3,2.47,5.96c1.65,1.65,3.64,2.48,5.97,2.48s4.32-.83,5.97-2.48c1.65-1.65,2.47-3.64,2.47-5.96s-.82-4.3-2.47-5.96c-1.65-1.65-3.64-2.48-5.97-2.48s-4.32.83-5.97,2.48ZM76.79,123.54c-1.37-1.37-2.06-3.03-2.06-4.97s.69-3.6,2.06-4.97,3.03-2.06,4.97-2.06,3.6.69,4.97,2.06c1.37,1.37,2.06,3.03,2.06,4.97s-.69,3.6-2.06,4.97-3.03,2.06-4.97,2.06-3.6-.69-4.97-2.06ZM77.78,114.59c-1.1,1.1-1.65,2.43-1.65,3.97s.55,2.87,1.65,3.97c1.1,1.1,2.42,1.65,3.97,1.65s2.87-.55,3.97-1.65,1.65-2.42,1.65-3.97-.55-2.87-1.65-3.97c-1.1-1.1-2.43-1.65-3.97-1.65s-2.87.55-3.97,1.65Z"/>
          <path class="cls-1" d="M103.79,124.57c-.82-1.91-1.23-3.91-1.23-6.01s.41-4.1,1.23-6.01c.82-1.91,1.92-3.55,3.3-4.93s3.02-2.48,4.93-3.3c1.91-.82,3.91-1.23,6.01-1.23s4.1.41,6.01,1.23c1.91.82,3.55,1.92,4.93,3.3,1.38,1.38,2.48,3.02,3.3,4.93.82,1.91,1.23,3.91,1.23,6.01s-.41,4.1-1.23,6.01c-.82,1.91-1.92,3.55-3.3,4.93s-3.02,2.48-4.93,3.3c-1.91.82-3.91,1.23-6.01,1.23s-4.1-.41-6.01-1.23c-1.91-.82-3.55-1.92-4.93-3.3-1.38-1.38-2.48-3.02-3.3-4.93ZM105.08,113.11c-.74,1.74-1.11,3.56-1.11,5.46s.37,3.72,1.11,5.46,1.74,3.24,3,4.49c1.26,1.26,2.75,2.26,4.49,3s3.56,1.11,5.46,1.11,3.72-.37,5.46-1.11,3.24-1.74,4.49-3,2.26-2.75,3-4.49,1.11-3.56,1.11-5.46-.37-3.72-1.11-5.46-1.74-3.24-3-4.49c-1.26-1.26-2.75-2.26-4.49-3s-3.56-1.11-5.46-1.11-3.72.37-5.46,1.11-3.24,1.74-4.49,3-2.26,2.75-3,4.49ZM106.38,123.49c-.67-1.56-1.01-3.2-1.01-4.92s.33-3.36,1.01-4.92c.67-1.56,1.57-2.91,2.7-4.03s2.47-2.02,4.03-2.7c1.56-.67,3.2-1.01,4.92-1.01s3.36.34,4.92,1.01c1.56.67,2.91,1.57,4.03,2.7,1.13,1.13,2.02,2.47,2.7,4.03.67,1.56,1.01,3.2,1.01,4.92s-.34,3.36-1.01,4.92c-.67,1.56-1.57,2.91-2.7,4.03s-2.47,2.02-4.03,2.7c-1.56.67-3.2,1.01-4.92,1.01s-3.36-.33-4.92-1.01c-1.56-.67-2.91-1.57-4.03-2.7-1.13-1.13-2.02-2.47-2.7-4.03ZM107.66,114.2c-.59,1.39-.89,2.84-.89,4.37s.3,2.98.89,4.37c.59,1.39,1.39,2.58,2.4,3.59,1.01,1.01,2.21,1.81,3.59,2.4,1.39.59,2.84.89,4.37.89s2.98-.3,4.37-.89c1.39-.59,2.58-1.39,3.59-2.4s1.81-2.21,2.4-3.59c.59-1.39.89-2.84.89-4.37s-.3-2.98-.89-4.37c-.59-1.39-1.39-2.58-2.4-3.59-1.01-1.01-2.21-1.81-3.59-2.4-1.39-.59-2.84-.89-4.37-.89s-2.98.3-4.37.89c-1.39.59-2.58,1.39-3.59,2.4s-1.81,2.21-2.4,3.59ZM109.5,123.51c-.88-1.51-1.32-3.16-1.32-4.94s.44-3.43,1.32-4.94c.88-1.51,2.07-2.71,3.58-3.58,1.51-.88,3.16-1.32,4.94-1.32s3.43.44,4.94,1.32c1.51.88,2.71,2.07,3.58,3.58.88,1.51,1.32,3.16,1.32,4.94s-.44,3.43-1.32,4.94c-.88,1.51-2.07,2.71-3.58,3.58-1.51.88-3.16,1.32-4.94,1.32s-3.43-.44-4.94-1.32c-1.51-.88-2.71-2.07-3.58-3.58ZM112.06,112.61c-1.65,1.65-2.47,3.64-2.47,5.96s.82,4.3,2.47,5.96c1.65,1.65,3.64,2.48,5.97,2.48s4.32-.83,5.97-2.48c1.65-1.65,2.47-3.64,2.47-5.96s-.82-4.3-2.47-5.96c-1.65-1.65-3.64-2.48-5.97-2.48s-4.32.83-5.97,2.48ZM113.05,123.54c-1.37-1.37-2.06-3.03-2.06-4.97s.69-3.6,2.06-4.97,3.03-2.06,4.97-2.06,3.6.69,4.97,2.06c1.37,1.37,2.06,3.03,2.06,4.97s-.69,3.6-2.06,4.97-3.03,2.06-4.97,2.06-3.6-.69-4.97-2.06ZM114.05,114.59c-1.1,1.1-1.65,2.43-1.65,3.97s.55,2.87,1.65,3.97c1.1,1.1,2.42,1.65,3.97,1.65s2.87-.55,3.97-1.65,1.65-2.42,1.65-3.97-.55-2.87-1.65-3.97c-1.1-1.1-2.43-1.65-3.97-1.65s-2.87.55-3.97,1.65Z"/>
          <path class="cls-1" d="M163.05,132.63h-1.41v-17.58c0-1.42-.32-2.78-.95-4.08-.63-1.3-1.48-2.42-2.55-3.37-1.07-.94-2.34-1.7-3.81-2.26-1.47-.56-3.01-.84-4.61-.84-2.2,0-4.2.41-5.99,1.24-1.79.83-3.23,2.05-4.31,3.67-1.08,1.62-1.62,3.5-1.62,5.63v17.58h-1.41v-17.58c0-1.8.35-3.45,1.05-4.96.7-1.51,1.66-2.77,2.86-3.79,1.2-1.02,2.62-1.8,4.24-2.36,1.62-.56,3.34-.84,5.17-.84,3.23,0,6.03.81,8.4,2.44,2.37-1.63,5.17-2.44,8.4-2.44,1.82,0,3.54.28,5.17.84,1.62.56,3.03,1.35,4.24,2.36,1.21,1.02,2.16,2.28,2.86,3.79.7,1.51,1.05,3.16,1.05,4.96v17.58h-1.41v-17.58c0-2.12-.54-3.99-1.62-5.62-1.08-1.62-2.52-2.85-4.31-3.68-1.79-.83-3.79-1.25-5.99-1.25-2.76,0-5.17.65-7.23,1.95.3.26.63.6,1,1.02,1.78-1.04,3.86-1.56,6.23-1.56,1.45,0,2.81.21,4.08.62,1.28.42,2.39,1.01,3.34,1.77.95.76,1.7,1.72,2.26,2.88.55,1.16.83,2.45.83,3.87v17.58h-1.41v-17.58c0-1.22-.24-2.33-.71-3.32-.47-.99-1.13-1.8-1.96-2.44-.83-.64-1.8-1.13-2.89-1.46-1.09-.34-2.27-.51-3.54-.51-2.07,0-3.86.42-5.37,1.27.23.36.47.77.7,1.21,1.28-.72,2.83-1.07,4.67-1.07,1.45,0,2.74.22,3.88.67,1.14.45,2.06,1.16,2.76,2.14s1.05,2.15,1.05,3.52v17.58h-1.41v-17.58c0-1.65-.58-2.89-1.75-3.7-1.17-.81-2.68-1.22-4.54-1.22-1.69,0-3.07.31-4.12.94.17.5.3.96.39,1.41.82-.62,2.06-.94,3.73-.94,3.25,0,4.88,1.17,4.88,3.52v17.58h-1.41v-17.58c0-.38-.06-.7-.19-.97-.12-.27-.28-.47-.48-.62-.2-.14-.45-.26-.77-.34-.32-.08-.63-.14-.93-.16-.3-.02-.67-.03-1.11-.03s-.81,0-1.11.03c-.3.02-.61.07-.93.16-.32.08-.58.2-.77.34-.2.14-.35.35-.48.62-.12.27-.19.59-.19.97v17.58ZM160.23,115.05v17.58h-1.41v-17.58c0-1.22-.24-2.33-.71-3.32-.48-.99-1.13-1.8-1.96-2.44-.83-.64-1.8-1.13-2.89-1.46-1.09-.34-2.27-.51-3.54-.51s-2.44.17-3.54.51c-1.09.34-2.06.83-2.89,1.46-.83.64-1.49,1.45-1.96,2.44-.48.99-.71,2.1-.71,3.32v17.58h-1.41v-17.58c0-1.42.28-2.71.83-3.87.55-1.16,1.31-2.12,2.26-2.88.95-.76,2.06-1.35,3.34-1.77,1.28-.42,2.64-.62,4.08-.62s2.81.21,4.08.62c1.28.42,2.39,1.01,3.34,1.77.95.76,1.7,1.72,2.26,2.88.55,1.16.83,2.45.83,3.87ZM157.42,115.05v17.58h-1.41v-17.58c0-1.65-.58-2.89-1.75-3.7-1.17-.81-2.68-1.22-4.54-1.22s-3.38.41-4.54,1.22c-1.17.81-1.75,2.05-1.75,3.7v17.58h-1.41v-17.58c0-1.37.35-2.54,1.05-3.52s1.62-1.69,2.76-2.14c1.14-.45,2.43-.67,3.88-.67s2.74.22,3.88.67c1.14.45,2.06,1.16,2.76,2.14s1.05,2.15,1.05,3.52ZM154.61,115.05v17.58h-1.41v-17.58c0-.38-.06-.7-.19-.97-.12-.27-.28-.47-.48-.62-.2-.14-.45-.26-.77-.34-.32-.08-.63-.14-.93-.16-.3-.02-.67-.03-1.11-.03s-.81,0-1.11.03c-.3.02-.61.07-.93.16-.32.08-.58.2-.77.34-.2.14-.35.35-.48.62-.12.27-.19.59-.19.97v17.58h-1.41v-17.58c0-2.34,1.63-3.52,4.88-3.52s4.88,1.17,4.88,3.52Z"/>
          <path class="cls-1" d="M184.76,132.63h-1.41v-28.12h1.41v28.12ZM187.58,132.63h-1.41v-28.12h1.41v28.12ZM190.39,132.63h-1.41v-28.12h1.41v28.12ZM193.2,125.6h13.46v1.41h-13.46v1.41h13.46v1.41h-13.46v1.41h13.46v1.41h-14.86v-28.12h14.86v1.41h-13.46v1.41h13.46v1.41h-13.46v1.41h13.46v1.41h-13.46v3.5h12.68v1.41h-12.68v1.41h12.68v1.41h-12.68v1.41h12.68v1.41h-12.68v3.54Z"/>
          <path class="cls-1" d="M220.66,124.82h8.48c1.73,0,3.33-.42,4.8-1.25,1.47-.83,2.65-1.99,3.53-3.48s1.32-3.12,1.32-4.92c0-1.63-.44-3.15-1.31-4.58s-2.05-2.56-3.54-3.41c-1.49-.85-3.09-1.27-4.79-1.27h-17.7v26.72h-1.41v-28.12h19.1c1.47,0,2.89.29,4.25.87,1.36.58,2.54,1.35,3.53,2.3s1.78,2.09,2.38,3.41c.6,1.32.9,2.68.9,4.08,0,2.28-.52,4.27-1.56,5.97s-2.44,2.99-4.2,3.88l2.95,7.62h-1.5l-2.79-7.05c-.35.12-.76.23-1.23.35l2.64,6.7h-1.5l-2.58-6.46c-.4.04-.83.06-1.27.06l2.48,6.41h-1.48l-2.46-6.41h-1.27l2.36,6.41h-1.48l-2.38-6.41h-4.24v-1.41ZM220.66,122h8.48c1.88,0,3.48-.64,4.82-1.91,1.34-1.28,2.01-2.92,2.01-4.92,0-1.71-.68-3.21-2.05-4.5-1.37-1.3-2.96-1.94-4.79-1.94h-14.88v23.91h-1.41v-25.31h16.29c2.21,0,4.14.78,5.78,2.35,1.64,1.57,2.46,3.4,2.46,5.5,0,2.34-.81,4.3-2.43,5.88-1.62,1.58-3.56,2.36-5.81,2.36h-8.48v-1.41ZM220.66,119.19h8.48c1.12,0,2.07-.35,2.85-1.05s1.17-1.69,1.17-2.97c0-.94-.41-1.78-1.22-2.52s-1.75-1.11-2.8-1.11h-12.07v21.09h-1.41v-22.5h13.48c1.45,0,2.71.51,3.8,1.52s1.63,2.19,1.63,3.52c0,1.65-.53,2.97-1.58,3.96-1.05.98-2.34,1.47-3.85,1.47h-8.48v-1.41ZM219.88,132.63h-1.41v-19.69h10.66c.73,0,1.35.22,1.86.65.51.44.76.96.76,1.57,0,1.75-.87,2.62-2.62,2.62h-8.48v-1.41h8.48c.81,0,1.21-.4,1.21-1.21,0-.22-.12-.41-.36-.58-.24-.16-.52-.24-.85-.24h-9.26v18.28Z"/>
          <path class="cls-1" d="M243.32,100.29h1.41v23.91h-1.41v-23.91ZM243.32,128.41v-1.41h9.84v1.41h-9.84ZM243.32,131.22v-1.41h9.84v1.41h-9.84ZM243.32,134.04v-1.41h9.84v1.41h-9.84ZM246.13,100.29h1.41v23.91h-1.41v-23.91ZM248.94,100.29h1.41v23.91h-1.41v-23.91ZM251.76,100.29h1.41v23.91h-1.41v-23.91Z"/>
        </g>
      </g>
      <path class="cls-1" d="M267.86,180.25H17.83c-9.83,0-17.83-8-17.83-17.83V17.83C0,8,8,0,17.83,0h250.03c9.83,0,17.83,8,17.83,17.83v144.58c0,9.83-8,17.83-17.83,17.83ZM17.83,5c-7.08,0-12.83,5.76-12.83,12.83v144.58c0,7.08,5.76,12.83,12.83,12.83h250.03c7.08,0,12.83-5.76,12.83-12.83V17.83c0-7.08-5.76-12.83-12.83-12.83H17.83Z"/>
    </g>
  </g>
</svg>