<svg width="348" height="124" viewBox="0 0 348 124" fill="none" xmlns="http://www.w3.org/2000/svg">
<path d="M295.628 80.4297H293.87V45.2734H295.628V80.4297ZM292.112 80.4297H290.354V45.2734H292.112V80.4297ZM288.597 80.4297H286.839V45.2734H288.597V80.4297ZM299.144 71.6406H315.965V73.3984H299.144V75.1562H315.965V76.9141H299.144V78.6719H315.965V80.4297H297.386V45.2734H315.965V47.0312H299.144V48.7891H315.965V50.5469H299.144V52.3047H315.965V54.0625H299.144V58.4326H314.988V60.1904H299.144V61.9482H314.988V63.7061H299.144V65.4639H314.988V67.2217H299.144V71.6406Z" fill="white"/>
<path d="M250.901 58.457V80.4297H249.144V58.457C249.144 57.985 249.062 57.5863 248.899 57.2607C248.753 56.9189 248.558 56.6585 248.313 56.4795C248.069 56.3005 247.744 56.1621 247.337 56.0645C246.946 55.9505 246.564 55.8854 246.189 55.8691C245.815 55.8366 245.351 55.8203 244.798 55.8203C244.244 55.8203 243.781 55.8366 243.406 55.8691C243.032 55.8854 242.641 55.9505 242.234 56.0645C241.844 56.1621 241.526 56.3005 241.282 56.4795C241.038 56.6585 240.835 56.9189 240.672 57.2607C240.525 57.5863 240.452 57.985 240.452 58.457V80.4297H238.694V58.457C238.694 55.5273 240.729 54.0625 244.798 54.0625C248.867 54.0625 250.901 55.5273 250.901 58.457ZM254.417 58.457V80.4297H252.659V58.457C252.659 56.39 251.927 54.8519 250.462 53.8428C249.013 52.8174 247.125 52.3047 244.798 52.3047C242.47 52.3047 240.574 52.8174 239.109 53.8428C237.661 54.8519 236.937 56.39 236.937 58.457V80.4297H235.179V58.457C235.179 56.748 235.618 55.2832 236.497 54.0625C237.376 52.8418 238.523 51.9548 239.939 51.4014C241.372 50.8317 242.991 50.5469 244.798 50.5469C246.604 50.5469 248.216 50.8317 249.632 51.4014C251.064 51.9548 252.22 52.8418 253.099 54.0625C253.978 55.2832 254.417 56.748 254.417 58.457ZM257.933 58.457V80.4297H256.175V58.457C256.175 56.9271 255.874 55.5436 255.271 54.3066C254.686 53.0697 253.872 52.0524 252.83 51.2549C251.788 50.4574 250.584 49.847 249.217 49.4238C247.85 49.0007 246.377 48.7891 244.798 48.7891C243.219 48.7891 241.746 49.0007 240.379 49.4238C239.012 49.847 237.807 50.4574 236.766 51.2549C235.724 52.0524 234.902 53.0697 234.3 54.3066C233.714 55.5436 233.421 56.9271 233.421 58.457V80.4297H231.663V58.457C231.663 56.6829 232.005 55.0716 232.688 53.623C233.388 52.1745 234.332 50.9782 235.521 50.0342C236.709 49.0739 238.1 48.3333 239.695 47.8125C241.29 47.2917 242.991 47.0312 244.798 47.0312C246.604 47.0312 248.305 47.2917 249.9 47.8125C251.495 48.3333 252.887 49.0739 254.075 50.0342C255.263 50.9782 256.199 52.1745 256.883 53.623C257.583 55.0716 257.933 56.6829 257.933 58.457ZM261.448 80.4297H259.69V58.457C259.69 56.6829 259.292 54.9821 258.494 53.3545C257.713 51.7269 256.655 50.3271 255.32 49.1553C253.986 47.9671 252.399 47.0231 250.56 46.3232C248.72 45.6234 246.8 45.2734 244.798 45.2734C242.047 45.2734 239.549 45.7943 237.303 46.8359C235.073 47.8613 233.283 49.3913 231.932 51.4258C230.581 53.444 229.905 55.7878 229.905 58.457V80.4297H228.147V58.457C228.147 56.2109 228.587 54.1439 229.466 52.2559C230.345 50.3678 231.533 48.7891 233.03 47.5195C234.544 46.25 236.31 45.2653 238.328 44.5654C240.363 43.8656 242.519 43.5156 244.798 43.5156C248.834 43.5156 252.334 44.5329 255.296 46.5674C258.258 44.5329 261.757 43.5156 265.794 43.5156C268.073 43.5156 270.221 43.8656 272.239 44.5654C274.274 45.2653 276.04 46.25 277.537 47.5195C279.051 48.7891 280.247 50.3678 281.126 52.2559C282.005 54.1439 282.444 56.2109 282.444 58.457V80.4297H280.687V58.457C280.687 55.804 280.011 53.4684 278.66 51.4502C277.309 49.4157 275.511 47.8776 273.265 46.8359C271.035 45.7943 268.545 45.2734 265.794 45.2734C262.343 45.2734 259.332 46.0872 256.761 47.7148C257.135 48.0404 257.55 48.4635 258.006 48.9844C260.236 47.6823 262.832 47.0312 265.794 47.0312C267.601 47.0312 269.301 47.2917 270.896 47.8125C272.492 48.3333 273.883 49.0739 275.071 50.0342C276.259 50.9782 277.195 52.1745 277.879 53.623C278.579 55.0716 278.929 56.6829 278.929 58.457V80.4297H277.171V58.457C277.171 56.9271 276.87 55.5436 276.268 54.3066C275.682 53.0697 274.868 52.0524 273.826 51.2549C272.785 50.4574 271.58 49.847 270.213 49.4238C268.846 49.0007 267.373 48.7891 265.794 48.7891C263.206 48.7891 260.968 49.318 259.08 50.376C259.373 50.8317 259.666 51.3363 259.959 51.8896C261.554 50.9945 263.499 50.5469 265.794 50.5469C267.601 50.5469 269.212 50.8317 270.628 51.4014C272.06 51.9548 273.216 52.8418 274.095 54.0625C274.974 55.2832 275.413 56.748 275.413 58.457V80.4297H273.655V58.457C273.655 56.39 272.923 54.8519 271.458 53.8428C270.009 52.8174 268.121 52.3047 265.794 52.3047C263.678 52.3047 261.961 52.6953 260.643 53.4766C260.854 54.0951 261.017 54.681 261.131 55.2344C262.156 54.4531 263.711 54.0625 265.794 54.0625C269.863 54.0625 271.897 55.5273 271.897 58.457V80.4297H270.14V58.457C270.14 57.985 270.058 57.5863 269.896 57.2607C269.749 56.9189 269.554 56.6585 269.31 56.4795C269.065 56.3005 268.74 56.1621 268.333 56.0645C267.942 55.9505 267.56 55.8854 267.186 55.8691C266.811 55.8366 266.347 55.8203 265.794 55.8203C265.241 55.8203 264.777 55.8366 264.402 55.8691C264.028 55.8854 263.637 55.9505 263.23 56.0645C262.84 56.1621 262.522 56.3005 262.278 56.4795C262.034 56.6585 261.831 56.9189 261.668 57.2607C261.521 57.5863 261.448 57.985 261.448 58.457V80.4297Z" fill="white"/>
<path d="M200.169 57.8955C198.802 59.2627 198.118 60.9147 198.118 62.8516C198.118 64.7884 198.802 66.4486 200.169 67.832C201.552 69.1992 203.213 69.8828 205.149 69.8828C207.086 69.8828 208.738 69.1992 210.105 67.832C211.489 66.4486 212.181 64.7884 212.181 62.8516C212.181 60.9147 211.489 59.2627 210.105 57.8955C208.738 56.512 207.086 55.8203 205.149 55.8203C203.213 55.8203 201.552 56.512 200.169 57.8955ZM198.924 69.0771C197.215 67.3519 196.36 65.2767 196.36 62.8516C196.36 60.4264 197.215 58.3594 198.924 56.6504C200.649 54.9251 202.724 54.0625 205.149 54.0625C207.575 54.0625 209.642 54.9251 211.351 56.6504C213.076 58.3594 213.938 60.4264 213.938 62.8516C213.938 65.2767 213.076 67.3519 211.351 69.0771C209.642 70.7861 207.575 71.6406 205.149 71.6406C202.724 71.6406 200.649 70.7861 198.924 69.0771ZM197.679 55.4053C195.628 57.4723 194.603 59.9544 194.603 62.8516C194.603 65.7487 195.628 68.2308 197.679 70.2979C199.746 72.3649 202.236 73.3984 205.149 73.3984C208.063 73.3984 210.545 72.3649 212.596 70.2979C214.663 68.2308 215.696 65.7487 215.696 62.8516C215.696 59.9544 214.663 57.4723 212.596 55.4053C210.545 53.3382 208.063 52.3047 205.149 52.3047C202.236 52.3047 199.746 53.3382 197.679 55.4053ZM194.48 69.0283C193.39 67.1403 192.845 65.0814 192.845 62.8516C192.845 60.6217 193.39 58.5628 194.48 56.6748C195.587 54.7868 197.085 53.2975 198.973 52.207C200.861 51.1003 202.92 50.5469 205.149 50.5469C207.379 50.5469 209.438 51.1003 211.326 52.207C213.214 53.2975 214.703 54.7868 215.794 56.6748C216.901 58.5628 217.454 60.6217 217.454 62.8516C217.454 65.0814 216.901 67.1403 215.794 69.0283C214.703 70.9163 213.214 72.4137 211.326 73.5205C209.438 74.611 207.379 75.1562 205.149 75.1562C202.92 75.1562 200.861 74.611 198.973 73.5205C197.085 72.4137 195.587 70.9163 194.48 69.0283ZM192.186 57.4072C191.453 59.1325 191.087 60.9473 191.087 62.8516C191.087 64.7559 191.453 66.5788 192.186 68.3203C192.934 70.0456 193.935 71.543 195.188 72.8125C196.458 74.0658 197.955 75.0667 199.681 75.8154C201.422 76.5479 203.245 76.9141 205.149 76.9141C207.054 76.9141 208.868 76.5479 210.594 75.8154C212.335 75.0667 213.833 74.0658 215.086 72.8125C216.355 71.543 217.356 70.0456 218.089 68.3203C218.838 66.5788 219.212 64.7559 219.212 62.8516C219.212 60.9473 218.838 59.1325 218.089 57.4072C217.356 55.6657 216.355 54.1683 215.086 52.915C213.833 51.6455 212.335 50.6445 210.594 49.9121C208.868 49.1634 207.054 48.7891 205.149 48.7891C203.245 48.7891 201.422 49.1634 199.681 49.9121C197.955 50.6445 196.458 51.6455 195.188 52.915C193.935 54.1683 192.934 55.6657 192.186 57.4072ZM190.574 69.0039C189.744 67.0508 189.329 65 189.329 62.8516C189.329 60.7031 189.744 58.6523 190.574 56.6992C191.421 54.7461 192.544 53.0697 193.943 51.6699C195.359 50.2539 197.044 49.1309 198.997 48.3008C200.95 47.4544 203.001 47.0312 205.149 47.0312C207.298 47.0312 209.349 47.4544 211.302 48.3008C213.255 49.1309 214.931 50.2539 216.331 51.6699C217.747 53.0697 218.87 54.7461 219.7 56.6992C220.547 58.6523 220.97 60.7031 220.97 62.8516C220.97 65 220.547 67.0508 219.7 69.0039C218.87 70.957 217.747 72.6416 216.331 74.0576C214.931 75.4574 213.255 76.5804 211.302 77.4268C209.349 78.2568 207.298 78.6719 205.149 78.6719C203.001 78.6719 200.95 78.2568 198.997 77.4268C197.044 76.5804 195.359 75.4574 193.943 74.0576C192.544 72.6416 191.421 70.957 190.574 69.0039ZM188.963 56.04C188.035 58.2048 187.571 60.4753 187.571 62.8516C187.571 65.2279 188.035 67.5065 188.963 69.6875C189.891 71.8522 191.136 73.724 192.698 75.3027C194.277 76.8652 196.149 78.1104 198.313 79.0381C200.494 79.9658 202.773 80.4297 205.149 80.4297C207.526 80.4297 209.796 79.9658 211.961 79.0381C214.142 78.1104 216.014 76.8652 217.576 75.3027C219.155 73.724 220.408 71.8522 221.336 69.6875C222.264 67.5065 222.728 65.2279 222.728 62.8516C222.728 60.4753 222.264 58.2048 221.336 56.04C220.408 53.859 219.155 51.9873 217.576 50.4248C216.014 48.846 214.142 47.5928 211.961 46.665C209.796 45.7373 207.526 45.2734 205.149 45.2734C202.773 45.2734 200.494 45.7373 198.313 46.665C196.149 47.5928 194.277 48.846 192.698 50.4248C191.136 51.9873 189.891 53.859 188.963 56.04ZM187.352 70.3711C186.326 67.9785 185.813 65.472 185.813 62.8516C185.813 60.2311 186.326 57.7327 187.352 55.3564C188.377 52.9639 189.752 50.9049 191.478 49.1797C193.203 47.4544 195.254 46.0791 197.63 45.0537C200.022 44.0283 202.529 43.5156 205.149 43.5156C207.77 43.5156 210.268 44.0283 212.645 45.0537C215.037 46.0791 217.096 47.4544 218.821 49.1797C220.547 50.9049 221.922 52.9639 222.947 55.3564C223.973 57.7327 224.485 60.2311 224.485 62.8516C224.485 65.472 223.973 67.9785 222.947 70.3711C221.922 72.7474 220.547 74.7982 218.821 76.5234C217.096 78.2487 215.037 79.624 212.645 80.6494C210.268 81.6748 207.77 82.1875 205.149 82.1875C202.529 82.1875 200.022 81.6748 197.63 80.6494C195.254 79.624 193.203 78.2487 191.478 76.5234C189.752 74.7982 188.377 72.7474 187.352 70.3711Z" fill="white"/>
<path d="M175.169 57.3828L173.753 58.457C172.337 56.6992 170.514 55.8203 168.284 55.8203C166.347 55.8203 164.687 56.512 163.304 57.8955C161.937 59.2627 161.253 60.9147 161.253 62.8516C161.253 64.7884 161.937 66.4486 163.304 67.832C164.687 69.1992 166.347 69.8828 168.284 69.8828C169.375 69.8828 170.392 69.6468 171.336 69.1748C172.296 68.7028 173.11 68.0518 173.777 67.2217L175.145 68.3691C174.331 69.3945 173.322 70.2002 172.117 70.7861C170.913 71.3558 169.635 71.6406 168.284 71.6406C165.859 71.6406 163.784 70.7861 162.059 69.0771C160.35 67.3519 159.495 65.2767 159.495 62.8516C159.495 60.4264 160.35 58.3594 162.059 56.6504C163.784 54.9251 165.859 54.0625 168.284 54.0625C169.651 54.0625 170.937 54.3636 172.142 54.9658C173.346 55.5518 174.355 56.3574 175.169 57.3828ZM177.903 55.1855L176.512 56.2598C175.535 55.0228 174.323 54.0544 172.874 53.3545C171.442 52.6546 169.912 52.3047 168.284 52.3047C165.371 52.3047 162.881 53.3382 160.813 55.4053C158.763 57.4723 157.737 59.9544 157.737 62.8516C157.737 65.7487 158.763 68.2308 160.813 70.2979C162.881 72.3649 165.371 73.3984 168.284 73.3984C169.912 73.3984 171.45 73.0485 172.898 72.3486C174.347 71.6325 175.56 70.6559 176.536 69.4189L177.879 70.542C176.74 71.9743 175.332 73.1055 173.655 73.9355C171.979 74.7493 170.188 75.1562 168.284 75.1562C166.054 75.1562 163.995 74.611 162.107 73.5205C160.219 72.4137 158.722 70.9163 157.615 69.0283C156.525 67.1403 155.979 65.0814 155.979 62.8516C155.979 60.6217 156.525 58.5628 157.615 56.6748C158.722 54.7868 160.219 53.2975 162.107 52.207C163.995 51.1003 166.054 50.5469 168.284 50.5469C170.188 50.5469 171.979 50.9619 173.655 51.792C175.348 52.6058 176.764 53.737 177.903 55.1855ZM180.662 52.9883L179.295 54.0869C177.977 52.443 176.357 51.1491 174.437 50.2051C172.516 49.2611 170.465 48.7891 168.284 48.7891C166.38 48.7891 164.557 49.1634 162.815 49.9121C161.09 50.6445 159.593 51.6455 158.323 52.915C157.07 54.1683 156.069 55.6657 155.32 57.4072C154.588 59.1325 154.222 60.9473 154.222 62.8516C154.222 64.7559 154.588 66.5788 155.32 68.3203C156.069 70.0456 157.07 71.543 158.323 72.8125C159.593 74.0658 161.09 75.0667 162.815 75.8154C164.557 76.5479 166.38 76.9141 168.284 76.9141C170.465 76.9141 172.516 76.4421 174.437 75.498C176.357 74.554 177.977 73.2601 179.295 71.6162L180.613 72.7637C179.132 74.6029 177.317 76.0514 175.169 77.1094C173.021 78.151 170.726 78.6719 168.284 78.6719C166.136 78.6719 164.085 78.2568 162.132 77.4268C160.179 76.5804 158.494 75.4574 157.078 74.0576C155.678 72.6416 154.555 70.957 153.709 69.0039C152.879 67.0508 152.464 65 152.464 62.8516C152.464 60.7031 152.879 58.6523 153.709 56.6992C154.555 54.7461 155.678 53.0697 157.078 51.6699C158.494 50.2539 160.179 49.1309 162.132 48.3008C164.085 47.4544 166.136 47.0312 168.284 47.0312C170.742 47.0312 173.045 47.5602 175.193 48.6182C177.358 49.6761 179.181 51.1328 180.662 52.9883ZM183.396 50.791L181.98 51.8408C180.337 49.8063 178.318 48.2031 175.926 47.0312C173.549 45.8594 171.002 45.2734 168.284 45.2734C165.908 45.2734 163.629 45.7373 161.448 46.665C159.284 47.5928 157.412 48.846 155.833 50.4248C154.271 51.9873 153.025 53.859 152.098 56.04C151.17 58.2048 150.706 60.4753 150.706 62.8516C150.706 65.2279 151.17 67.5065 152.098 69.6875C153.025 71.8522 154.271 73.724 155.833 75.3027C157.412 76.8652 159.284 78.1104 161.448 79.0381C163.629 79.9658 165.908 80.4297 168.284 80.4297C171.002 80.4297 173.549 79.8438 175.926 78.6719C178.318 77.5 180.337 75.8968 181.98 73.8623L183.372 74.9365C181.565 77.1826 179.344 78.9567 176.707 80.2588C174.087 81.5446 171.279 82.1875 168.284 82.1875C165.664 82.1875 163.157 81.6748 160.765 80.6494C158.388 79.624 156.338 78.2487 154.612 76.5234C152.887 74.7982 151.512 72.7474 150.486 70.3711C149.461 67.9785 148.948 65.472 148.948 62.8516C148.948 60.2311 149.461 57.7327 150.486 55.3564C151.512 52.9639 152.887 50.9049 154.612 49.1797C156.338 47.4544 158.388 46.0791 160.765 45.0537C163.157 44.0283 165.664 43.5156 168.284 43.5156C171.279 43.5156 174.095 44.1667 176.731 45.4688C179.368 46.7546 181.59 48.5286 183.396 50.791Z" fill="white"/>
<path d="M120.726 45.2734H122.483V80.4297H120.726V45.2734ZM131.272 45.2734H133.03V71.6406H145.994V73.3984H133.03V75.1562H145.994V76.9141H133.03V78.6719H145.994V80.4297H131.272V45.2734ZM127.757 45.2734H129.515V80.4297H127.757V45.2734ZM124.241 45.2734H125.999V80.4297H124.241V45.2734Z" fill="white"/>
<path d="M96.165 80.4297H94.4072V45.2734H96.165V80.4297ZM92.6494 80.4297H90.8916V45.2734H92.6494V80.4297ZM89.1338 80.4297H87.376V45.2734H89.1338V80.4297ZM99.6807 71.6406H116.502V73.3984H99.6807V75.1562H116.502V76.9141H99.6807V78.6719H116.502V80.4297H97.9229V45.2734H116.502V47.0312H99.6807V48.7891H116.502V50.5469H99.6807V52.3047H116.502V54.0625H99.6807V58.4326H115.525V60.1904H99.6807V61.9482H115.525V63.7061H99.6807V65.4639H115.525V67.2217H99.6807V71.6406Z" fill="white"/>
<path d="M40.8428 68.0029L40.0127 71.4697L31.6631 40H33.4697L40.8428 68.0029ZM42.6738 61.2402L41.7705 64.6094L35.3008 40H37.083L42.6738 61.2402ZM44.5049 54.2334L43.5771 57.6514L38.9141 40H40.7451L44.5049 54.2334ZM51.4629 80.4297H49.6318L60.3252 40.0488L60.3008 40H62.1562V40.0488L66.917 56.4551L71.2871 40H73.1182L62.4004 80.4297H60.5693L55.7842 64.0479L51.4629 80.4297ZM47.8008 80.4297H45.9941L56.6875 40H58.4941L47.8008 80.4297ZM44.1631 80.4297H42.3564L53.0742 40H54.8564L44.1631 80.4297ZM73.3379 80.4297H71.5068L82.2002 40H84.0312L73.3379 80.4297ZM69.6758 80.4297H67.8691L78.5625 40H80.3691L69.6758 80.4297ZM66.0381 80.4297H64.2314L74.9492 40H76.7314L66.0381 80.4297ZM39.6221 76.9629L49.4121 40H51.2432L40.5254 80.4297H38.6943L28.001 40H29.832L39.6221 76.9629ZM56.7119 60.6055L61.4482 77.1094L62.376 73.6182L57.6152 57.1631L56.7119 60.6055ZM58.5186 53.7207L63.2793 70.1758L64.207 66.7334L59.4463 50.2539L58.5186 53.7207ZM60.3252 46.8848L65.1104 63.3398L66.0137 59.873L61.2773 43.3691L60.3252 46.8848Z" fill="white"/>
<path d="M328 118V124H20V118H328ZM342 104V20C342 12.268 335.732 6 328 6H20C12.268 6 6 12.268 6 20V104C6 111.732 12.268 118 20 118V124C8.95431 124 0 115.046 0 104V20C1.64898e-06 9.12703 8.67646 0.280845 19.4834 0.00683594L20 0H328L328.517 0.00683594C339.324 0.280847 348 9.12703 348 20V104L347.993 104.517C347.719 115.324 338.873 124 328 124V118C335.732 118 342 111.732 342 104Z" fill="white"/>
</svg>
