<svg width="519" height="59" viewBox="0 0 519 59" fill="none" xmlns="http://www.w3.org/2000/svg">
<path d="M489.122 22.8H514.082V36.4H489.122V22.8ZM490.402 43.76H518.402V58H471.842V2H517.362V16.24H490.402V43.76Z" fill="black"/>
<path d="M427.723 58L404.043 2H424.363L443.643 49.28H431.563L451.403 2H469.963L446.283 58H427.723Z" fill="black"/>
<path d="M368.12 58V33.44L372.44 44.72L347 2H366.92L384.12 31.2H372.52L389.88 2H408.12L382.84 44.72L387 33.44V58H368.12Z" fill="black"/>
<path d="M327.693 2H346.573V58H327.693V2ZM310.253 58H291.373V2H310.253V58ZM328.973 37.36H308.973V21.84H328.973V37.36Z" fill="black"/>
<path d="M254.4 58V16.64H238V2H289.68V16.64H273.28V58H254.4Z" fill="black"/>
<path d="M204.754 25.84H229.394V40.08H204.754V25.84ZM206.034 58H187.154V2H232.674V16.24H206.034V58Z" fill="black"/>
<path fill-rule="evenodd" clip-rule="evenodd" d="M141.48 2L117 58H136.2L139.951 48.24L145.179 34.64L150.6 20.5345L156.021 34.64L161.249 48.24L165 58H184.52L160.04 2H141.48Z" fill="black"/>
<path d="M63.0918 58V2H90.0518C95.2785 2 99.7851 2.85333 103.572 4.56C107.412 6.26667 110.372 8.72 112.452 11.92C114.532 15.0667 115.572 18.8 115.572 23.12C115.572 27.44 114.532 31.1733 112.452 34.32C110.372 37.4133 107.412 39.7867 103.572 41.44C99.7851 43.0933 95.2785 43.92 90.0518 43.92H73.5718L81.9718 36.16V58H63.0918ZM96.6118 58L82.8518 37.6H102.852L116.772 58H96.6118ZM81.9718 38.24L73.5718 29.68H88.8518C91.4651 29.68 93.3851 29.0933 94.6118 27.92C95.8918 26.7467 96.5318 25.1467 96.5318 23.12C96.5318 21.0933 95.8918 19.4933 94.6118 18.32C93.3851 17.1467 91.4651 16.56 88.8518 16.56H73.5718L81.9718 8V38.24Z" fill="black"/>
<path d="M31.2 58.56C26.72 58.56 22.56 57.8667 18.72 56.48C14.9333 55.04 11.6267 53.0133 8.8 50.4C6.02667 47.7867 3.86667 44.6933 2.32 41.12C0.773333 37.5467 0 33.6 0 29.28C0 24.96 0.773333 21.0133 2.32 17.44C3.86667 13.8667 6.02667 10.7733 8.8 8.16C11.6267 5.54667 14.9333 3.54667 18.72 2.16C22.56 0.720001 26.72 0 31.2 0C36.6933 0 41.5467 0.96 45.76 2.88C50.0267 4.8 53.5467 7.57333 56.32 11.2L44.4 21.84C42.7467 19.76 40.9067 18.16 38.88 17.04C36.9067 15.8667 34.6667 15.28 32.16 15.28C30.1867 15.28 28.4 15.6 26.8 16.24C25.2 16.88 23.8133 17.8133 22.64 19.04C21.52 20.2667 20.64 21.76 20 23.52C19.36 25.2267 19.04 27.1467 19.04 29.28C19.04 31.4133 19.36 33.36 20 35.12C20.64 36.8267 21.52 38.2933 22.64 39.52C23.8133 40.7467 25.2 41.68 26.8 42.32C28.4 42.96 30.1867 43.28 32.16 43.28C34.6667 43.28 36.9067 42.72 38.88 41.6C40.9067 40.4267 42.7467 38.8 44.4 36.72L56.32 47.36C53.5467 50.9333 50.0267 53.7067 45.76 55.68C41.5467 57.6 36.6933 58.56 31.2 58.56Z" fill="black"/>
<path d="M162 53L150.5 45.9632L139 53L150.5 26L162 53ZM143.616 47.6828L150.5 43.471L157.384 47.6828L150.5 31.5217L143.616 47.6828Z" fill="black"/>
<path d="M437.5 24L429 4L437.5 9.21212L446 4L437.5 24Z" fill="black"/>
</svg>
