<svg width="45" height="53" viewBox="0 0 45 53" fill="none" xmlns="http://www.w3.org/2000/svg">
<path d="M0.611286 1.43992C0.421055 0.991817 0.918258 0.56373 1.33312 0.81842L22.2384 13.6524C22.3989 13.751 22.6011 13.751 22.7616 13.6524L43.6669 0.818425C44.0817 0.563734 44.5789 0.991821 44.3887 1.43992L22.9602 51.9159C22.7878 52.322 22.2122 52.322 22.0398 51.9159L0.611286 1.43992ZM35.3566 11.8774C35.5468 11.4293 35.0496 11.0012 34.6348 11.2559L22.7616 18.5446C22.6011 18.6431 22.3989 18.6431 22.2384 18.5446L10.3652 11.2559C9.95036 11.0012 9.45317 11.4293 9.6434 11.8774L22.0398 41.077C22.2122 41.4831 22.7878 41.4831 22.9602 41.077L35.3566 11.8774Z" fill="#393E46"/>
<path d="M22.959 36.937C22.7853 37.3394 22.2147 37.3394 22.041 36.937L13.6186 17.4326C13.4258 16.986 13.9195 16.5549 14.336 16.8063L22.2418 21.5774C22.4006 21.6733 22.5996 21.6733 22.7585 21.5774L30.664 16.8063C31.0805 16.555 31.5742 16.986 31.3814 17.4326L22.959 36.937Z" fill="#393E46"/>
</svg>
