<svg width="337" height="164" viewBox="0 0 337 164" fill="none" xmlns="http://www.w3.org/2000/svg">
<rect width="337" height="164" rx="3" fill="url(#paint0_linear_485_356)"/>
<path d="M20.47 28V18.2H24.292C25.1507 18.2 25.8833 18.3353 26.49 18.606C27.0967 18.8767 27.5633 19.2687 27.89 19.782C28.2167 20.2953 28.38 20.9067 28.38 21.616C28.38 22.3253 28.2167 22.9367 27.89 23.45C27.5633 23.954 27.0967 24.346 26.49 24.626C25.8833 24.8967 25.1507 25.032 24.292 25.032H21.24L21.87 24.374V28H20.47ZM21.87 24.514L21.24 23.814H24.25C25.146 23.814 25.8227 23.6227 26.28 23.24C26.7467 22.8573 26.98 22.316 26.98 21.616C26.98 20.916 26.7467 20.3747 26.28 19.992C25.8227 19.6093 25.146 19.418 24.25 19.418H21.24L21.87 18.718V24.514ZM34.7784 28V26.432L34.7084 26.138V23.464C34.7084 22.8947 34.5404 22.456 34.2044 22.148C33.8778 21.8307 33.3831 21.672 32.7204 21.672C32.2818 21.672 31.8524 21.7467 31.4324 21.896C31.0124 22.036 30.6578 22.2273 30.3684 22.47L29.8084 21.462C30.1911 21.154 30.6484 20.9207 31.1804 20.762C31.7218 20.594 32.2864 20.51 32.8744 20.51C33.8918 20.51 34.6758 20.7573 35.2264 21.252C35.7771 21.7467 36.0524 22.5027 36.0524 23.52V28H34.7784ZM32.3424 28.084C31.7918 28.084 31.3064 27.9907 30.8864 27.804C30.4758 27.6173 30.1584 27.3607 29.9344 27.034C29.7104 26.698 29.5984 26.32 29.5984 25.9C29.5984 25.4987 29.6918 25.1347 29.8784 24.808C30.0744 24.4813 30.3871 24.22 30.8164 24.024C31.2551 23.828 31.8431 23.73 32.5804 23.73H34.9324V24.696H32.6364C31.9644 24.696 31.5118 24.808 31.2784 25.032C31.0451 25.256 30.9284 25.5267 30.9284 25.844C30.9284 26.208 31.0731 26.502 31.3624 26.726C31.6518 26.9407 32.0531 27.048 32.5664 27.048C33.0704 27.048 33.5091 26.936 33.8824 26.712C34.2651 26.488 34.5404 26.1613 34.7084 25.732L34.9744 26.656C34.7971 27.0947 34.4844 27.4447 34.0364 27.706C33.5884 27.958 33.0238 28.084 32.3424 28.084ZM41.6616 28.084C41.027 28.084 40.467 27.9673 39.9816 27.734C39.5056 27.5007 39.1323 27.146 38.8616 26.67C38.6003 26.1847 38.4696 25.578 38.4696 24.85V20.58H39.8136V24.696C39.8136 25.424 39.9863 25.97 40.3316 26.334C40.6863 26.698 41.181 26.88 41.8156 26.88C42.2823 26.88 42.6883 26.7867 43.0336 26.6C43.379 26.404 43.645 26.124 43.8316 25.76C44.0183 25.3867 44.1116 24.9387 44.1116 24.416V20.58H45.4556V28H44.1816V25.998L44.3916 26.53C44.149 27.0247 43.785 27.4073 43.2996 27.678C42.8143 27.9487 42.2683 28.084 41.6616 28.084ZM48.0142 28V17.612H49.3582V28H48.0142ZM60.2902 28V26.432L60.2202 26.138V23.464C60.2202 22.8947 60.0522 22.456 59.7162 22.148C59.3895 21.8307 58.8948 21.672 58.2322 21.672C57.7935 21.672 57.3642 21.7467 56.9442 21.896C56.5242 22.036 56.1695 22.2273 55.8802 22.47L55.3202 21.462C55.7028 21.154 56.1602 20.9207 56.6922 20.762C57.2335 20.594 57.7982 20.51 58.3862 20.51C59.4035 20.51 60.1875 20.7573 60.7382 21.252C61.2888 21.7467 61.5642 22.5027 61.5642 23.52V28H60.2902ZM57.8542 28.084C57.3035 28.084 56.8182 27.9907 56.3982 27.804C55.9875 27.6173 55.6702 27.3607 55.4462 27.034C55.2222 26.698 55.1102 26.32 55.1102 25.9C55.1102 25.4987 55.2035 25.1347 55.3902 24.808C55.5862 24.4813 55.8988 24.22 56.3282 24.024C56.7668 23.828 57.3548 23.73 58.0922 23.73H60.4442V24.696H58.1482C57.4762 24.696 57.0235 24.808 56.7902 25.032C56.5568 25.256 56.4402 25.5267 56.4402 25.844C56.4402 26.208 56.5848 26.502 56.8742 26.726C57.1635 26.9407 57.5648 27.048 58.0782 27.048C58.5822 27.048 59.0208 26.936 59.3942 26.712C59.7768 26.488 60.0522 26.1613 60.2202 25.732L60.4862 26.656C60.3088 27.0947 59.9962 27.4447 59.5482 27.706C59.1002 27.958 58.5355 28.084 57.8542 28.084ZM68.0133 20.51C68.62 20.51 69.152 20.6267 69.6093 20.86C70.076 21.0933 70.44 21.448 70.7013 21.924C70.9627 22.4 71.0933 23.002 71.0933 23.73V28H69.7493V23.884C69.7493 23.1653 69.572 22.624 69.2173 22.26C68.872 21.896 68.382 21.714 67.7473 21.714C67.2713 21.714 66.856 21.8073 66.5013 21.994C66.1467 22.1807 65.8713 22.456 65.6753 22.82C65.4887 23.184 65.3953 23.6367 65.3953 24.178V28H64.0513V20.58H65.3393V22.582L65.1293 22.05C65.372 21.5647 65.7453 21.1867 66.2493 20.916C66.7533 20.6453 67.3413 20.51 68.0133 20.51ZM76.6466 28.084C75.928 28.084 75.284 27.9253 74.7146 27.608C74.1546 27.2907 73.7113 26.8473 73.3846 26.278C73.058 25.7087 72.8946 25.046 72.8946 24.29C72.8946 23.534 73.058 22.876 73.3846 22.316C73.7113 21.7467 74.1546 21.3033 74.7146 20.986C75.284 20.6687 75.928 20.51 76.6466 20.51C77.272 20.51 77.8366 20.65 78.3406 20.93C78.8446 21.21 79.246 21.63 79.5446 22.19C79.8526 22.75 80.0066 23.45 80.0066 24.29C80.0066 25.13 79.8573 25.83 79.5586 26.39C79.2693 26.95 78.8726 27.3747 78.3686 27.664C77.8646 27.944 77.2906 28.084 76.6466 28.084ZM76.7586 26.908C77.2253 26.908 77.6453 26.8007 78.0186 26.586C78.4013 26.3713 78.7 26.068 78.9146 25.676C79.1386 25.2747 79.2506 24.8127 79.2506 24.29C79.2506 23.758 79.1386 23.3007 78.9146 22.918C78.7 22.526 78.4013 22.2227 78.0186 22.008C77.6453 21.7933 77.2253 21.686 76.7586 21.686C76.2826 21.686 75.858 21.7933 75.4846 22.008C75.1113 22.2227 74.8126 22.526 74.5886 22.918C74.3646 23.3007 74.2526 23.758 74.2526 24.29C74.2526 24.8127 74.3646 25.2747 74.5886 25.676C74.8126 26.068 75.1113 26.3713 75.4846 26.586C75.858 26.8007 76.2826 26.908 76.7586 26.908ZM79.2926 28V25.998L79.3766 24.276L79.2366 22.554V17.612H80.5806V28H79.2926ZM89.4314 28.084C88.6847 28.084 88.106 27.8833 87.6954 27.482C87.2847 27.0807 87.0794 26.5067 87.0794 25.76V18.956H88.4234V25.704C88.4234 26.1053 88.5214 26.4133 88.7174 26.628C88.9227 26.8427 89.212 26.95 89.5854 26.95C90.0054 26.95 90.3554 26.8333 90.6354 26.6L91.0554 27.566C90.85 27.7433 90.6027 27.874 90.3134 27.958C90.0334 28.042 89.7394 28.084 89.4314 28.084ZM85.8194 21.686V20.58H90.5514V21.686H85.8194ZM96.6423 20.51C97.2489 20.51 97.7809 20.6267 98.2383 20.86C98.7049 21.0933 99.0689 21.448 99.3303 21.924C99.5916 22.4 99.7223 23.002 99.7223 23.73V28H98.3783V23.884C98.3783 23.1653 98.2009 22.624 97.8463 22.26C97.5009 21.896 97.0109 21.714 96.3763 21.714C95.9003 21.714 95.4849 21.8073 95.1303 21.994C94.7756 22.1807 94.5003 22.456 94.3043 22.82C94.1176 23.184 94.0243 23.6367 94.0243 24.178V28H92.6803V17.612H94.0243V22.582L93.7583 22.05C94.0009 21.5647 94.3743 21.1867 94.8783 20.916C95.3823 20.6453 95.9703 20.51 96.6423 20.51ZM105.514 28.084C104.72 28.084 104.02 27.9207 103.414 27.594C102.816 27.2673 102.35 26.8193 102.014 26.25C101.687 25.6807 101.524 25.0273 101.524 24.29C101.524 23.5527 101.682 22.8993 102 22.33C102.326 21.7607 102.77 21.3173 103.33 21C103.899 20.6733 104.538 20.51 105.248 20.51C105.966 20.51 106.601 20.6687 107.152 20.986C107.702 21.3033 108.132 21.7513 108.44 22.33C108.757 22.8993 108.916 23.5667 108.916 24.332C108.916 24.388 108.911 24.4533 108.902 24.528C108.902 24.6027 108.897 24.6727 108.888 24.738H102.574V23.772H108.188L107.642 24.108C107.651 23.632 107.553 23.2073 107.348 22.834C107.142 22.4607 106.858 22.1713 106.494 21.966C106.139 21.7513 105.724 21.644 105.248 21.644C104.781 21.644 104.366 21.7513 104.002 21.966C103.638 22.1713 103.353 22.4653 103.148 22.848C102.942 23.2213 102.84 23.6507 102.84 24.136V24.36C102.84 24.8547 102.952 25.298 103.176 25.69C103.409 26.0727 103.731 26.3713 104.142 26.586C104.552 26.8007 105.024 26.908 105.556 26.908C105.994 26.908 106.391 26.8333 106.746 26.684C107.11 26.5347 107.427 26.3107 107.698 26.012L108.44 26.88C108.104 27.272 107.684 27.5707 107.18 27.776C106.685 27.9813 106.13 28.084 105.514 28.084ZM115.998 22.834H121.052V24.038H115.998V22.834ZM116.138 28H114.738V18.2H121.654V19.418H116.138V28ZM126.318 28.084C125.683 28.084 125.123 27.9673 124.638 27.734C124.162 27.5007 123.789 27.146 123.518 26.67C123.257 26.1847 123.126 25.578 123.126 24.85V20.58H124.47V24.696C124.47 25.424 124.643 25.97 124.988 26.334C125.343 26.698 125.837 26.88 126.472 26.88C126.939 26.88 127.345 26.7867 127.69 26.6C128.035 26.404 128.301 26.124 128.488 25.76C128.675 25.3867 128.768 24.9387 128.768 24.416V20.58H130.112V28H128.838V25.998L129.048 26.53C128.805 27.0247 128.441 27.4073 127.956 27.678C127.471 27.9487 126.925 28.084 126.318 28.084ZM136.632 20.51C137.239 20.51 137.771 20.6267 138.228 20.86C138.695 21.0933 139.059 21.448 139.32 21.924C139.582 22.4 139.712 23.002 139.712 23.73V28H138.368V23.884C138.368 23.1653 138.191 22.624 137.836 22.26C137.491 21.896 137.001 21.714 136.366 21.714C135.89 21.714 135.475 21.8073 135.12 21.994C134.766 22.1807 134.49 22.456 134.294 22.82C134.108 23.184 134.014 23.6367 134.014 24.178V28H132.67V20.58H133.958V22.582L133.748 22.05C133.991 21.5647 134.364 21.1867 134.868 20.916C135.372 20.6453 135.96 20.51 136.632 20.51ZM143.292 26.208L143.32 24.486L147.59 20.58H149.214L145.938 23.8L145.21 24.416L143.292 26.208ZM142.2 28V17.612H143.544V28H142.2ZM147.87 28L144.958 24.388L145.826 23.31L149.522 28H147.87ZM150.752 30.8C150.398 30.8 150.052 30.7393 149.716 30.618C149.38 30.506 149.091 30.338 148.848 30.114L149.422 29.106C149.609 29.2833 149.814 29.4187 150.038 29.512C150.262 29.6053 150.5 29.652 150.752 29.652C151.079 29.652 151.35 29.568 151.564 29.4C151.779 29.232 151.98 28.9333 152.166 28.504L152.628 27.482L152.768 27.314L155.68 20.58H156.996L153.398 28.742C153.184 29.2647 152.941 29.6753 152.67 29.974C152.409 30.2727 152.12 30.4827 151.802 30.604C151.485 30.7347 151.135 30.8 150.752 30.8ZM152.516 28.238L149.128 20.58H150.528L153.412 27.188L152.516 28.238ZM162.206 28V18.2H166.602C167.732 18.2 168.6 18.4287 169.206 18.886C169.813 19.334 170.116 19.95 170.116 20.734C170.116 21.266 169.995 21.714 169.752 22.078C169.519 22.442 169.202 22.722 168.8 22.918C168.399 23.114 167.965 23.212 167.498 23.212L167.75 22.792C168.31 22.792 168.805 22.89 169.234 23.086C169.664 23.282 170.004 23.5713 170.256 23.954C170.508 24.3273 170.634 24.794 170.634 25.354C170.634 26.194 170.317 26.8473 169.682 27.314C169.057 27.7713 168.124 28 166.882 28H162.206ZM163.606 26.866H166.826C167.601 26.866 168.194 26.7353 168.604 26.474C169.015 26.2127 169.22 25.802 169.22 25.242C169.22 24.6727 169.015 24.2573 168.604 23.996C168.194 23.7347 167.601 23.604 166.826 23.604H163.48V22.47H166.476C167.186 22.47 167.736 22.3393 168.128 22.078C168.52 21.8167 168.716 21.4247 168.716 20.902C168.716 20.3793 168.52 19.9873 168.128 19.726C167.736 19.4647 167.186 19.334 166.476 19.334H163.606V26.866ZM175.728 28.084C175.093 28.084 174.533 27.9673 174.048 27.734C173.572 27.5007 173.199 27.146 172.928 26.67C172.667 26.1847 172.536 25.578 172.536 24.85V20.58H173.88V24.696C173.88 25.424 174.053 25.97 174.398 26.334C174.753 26.698 175.247 26.88 175.882 26.88C176.349 26.88 176.755 26.7867 177.1 26.6C177.445 26.404 177.711 26.124 177.898 25.76C178.085 25.3867 178.178 24.9387 178.178 24.416V20.58H179.522V28H178.248V25.998L178.458 26.53C178.215 27.0247 177.851 27.4073 177.366 27.678C176.881 27.9487 176.335 28.084 175.728 28.084ZM186.043 20.51C186.649 20.51 187.181 20.6267 187.639 20.86C188.105 21.0933 188.469 21.448 188.731 21.924C188.992 22.4 189.123 23.002 189.123 23.73V28H187.779V23.884C187.779 23.1653 187.601 22.624 187.247 22.26C186.901 21.896 186.411 21.714 185.777 21.714C185.301 21.714 184.885 21.8073 184.531 21.994C184.176 22.1807 183.901 22.456 183.705 22.82C183.518 23.184 183.425 23.6367 183.425 24.178V28H182.081V20.58H183.369V22.582L183.159 22.05C183.401 21.5647 183.775 21.1867 184.279 20.916C184.783 20.6453 185.371 20.51 186.043 20.51ZM194.844 28.084C194.088 28.084 193.411 27.9207 192.814 27.594C192.226 27.2673 191.764 26.8193 191.428 26.25C191.092 25.6807 190.924 25.0273 190.924 24.29C190.924 23.5527 191.092 22.8993 191.428 22.33C191.764 21.7607 192.226 21.3173 192.814 21C193.411 20.6733 194.088 20.51 194.844 20.51C195.516 20.51 196.113 20.6453 196.636 20.916C197.168 21.1773 197.579 21.5693 197.868 22.092L196.846 22.75C196.603 22.386 196.305 22.12 195.95 21.952C195.605 21.7747 195.231 21.686 194.83 21.686C194.345 21.686 193.911 21.7933 193.528 22.008C193.145 22.2227 192.842 22.526 192.618 22.918C192.394 23.3007 192.282 23.758 192.282 24.29C192.282 24.822 192.394 25.284 192.618 25.676C192.842 26.068 193.145 26.3713 193.528 26.586C193.911 26.8007 194.345 26.908 194.83 26.908C195.231 26.908 195.605 26.824 195.95 26.656C196.305 26.4787 196.603 26.208 196.846 25.844L197.868 26.488C197.579 27.0013 197.168 27.398 196.636 27.678C196.113 27.9487 195.516 28.084 194.844 28.084ZM203.474 20.51C204.081 20.51 204.613 20.6267 205.07 20.86C205.537 21.0933 205.901 21.448 206.162 21.924C206.424 22.4 206.554 23.002 206.554 23.73V28H205.21V23.884C205.21 23.1653 205.033 22.624 204.678 22.26C204.333 21.896 203.843 21.714 203.208 21.714C202.732 21.714 202.317 21.8073 201.962 21.994C201.608 22.1807 201.332 22.456 201.136 22.82C200.95 23.184 200.856 23.6367 200.856 24.178V28H199.512V17.612H200.856V22.582L200.59 22.05C200.833 21.5647 201.206 21.1867 201.71 20.916C202.214 20.6453 202.802 20.51 203.474 20.51Z" fill="white"/>
<path d="M22.799 119.09C22.307 119.09 21.836 119.021 21.386 118.883C20.936 118.739 20.579 118.556 20.315 118.334L20.72 117.425C20.972 117.623 21.284 117.788 21.656 117.92C22.028 118.052 22.409 118.118 22.799 118.118C23.129 118.118 23.396 118.082 23.6 118.01C23.804 117.938 23.954 117.842 24.05 117.722C24.146 117.596 24.194 117.455 24.194 117.299C24.194 117.107 24.125 116.954 23.987 116.84C23.849 116.72 23.669 116.627 23.447 116.561C23.231 116.489 22.988 116.423 22.718 116.363C22.454 116.303 22.187 116.234 21.917 116.156C21.653 116.072 21.41 115.967 21.188 115.841C20.972 115.709 20.795 115.535 20.657 115.319C20.519 115.103 20.45 114.827 20.45 114.491C20.45 114.149 20.54 113.837 20.72 113.555C20.906 113.267 21.185 113.039 21.557 112.871C21.935 112.697 22.412 112.61 22.988 112.61C23.366 112.61 23.741 112.658 24.113 112.754C24.485 112.85 24.809 112.988 25.085 113.168L24.716 114.077C24.434 113.909 24.143 113.786 23.843 113.708C23.543 113.624 23.255 113.582 22.979 113.582C22.655 113.582 22.391 113.621 22.187 113.699C21.989 113.777 21.842 113.879 21.746 114.005C21.656 114.131 21.611 114.275 21.611 114.437C21.611 114.629 21.677 114.785 21.809 114.905C21.947 115.019 22.124 115.109 22.34 115.175C22.562 115.241 22.808 115.307 23.078 115.373C23.348 115.433 23.615 115.502 23.879 115.58C24.149 115.658 24.392 115.76 24.608 115.886C24.83 116.012 25.007 116.183 25.139 116.399C25.277 116.615 25.346 116.888 25.346 117.218C25.346 117.554 25.253 117.866 25.067 118.154C24.887 118.436 24.608 118.664 24.23 118.838C23.852 119.006 23.375 119.09 22.799 119.09ZM28.5582 119.063C28.0662 119.063 27.6282 118.958 27.2442 118.748C26.8602 118.532 26.5572 118.238 26.3352 117.866C26.1132 117.494 26.0022 117.071 26.0022 116.597C26.0022 116.117 26.1132 115.694 26.3352 115.328C26.5572 114.956 26.8602 114.665 27.2442 114.455C27.6282 114.245 28.0662 114.14 28.5582 114.14C29.0562 114.14 29.4972 114.245 29.8812 114.455C30.2712 114.665 30.5742 114.953 30.7902 115.319C31.0122 115.685 31.1232 116.111 31.1232 116.597C31.1232 117.071 31.0122 117.494 30.7902 117.866C30.5742 118.238 30.2712 118.532 29.8812 118.748C29.4972 118.958 29.0562 119.063 28.5582 119.063ZM28.5582 118.1C28.8342 118.1 29.0802 118.04 29.2962 117.92C29.5122 117.8 29.6802 117.626 29.8002 117.398C29.9262 117.17 29.9892 116.903 29.9892 116.597C29.9892 116.285 29.9262 116.018 29.8002 115.796C29.6802 115.568 29.5122 115.394 29.2962 115.274C29.0802 115.154 28.8372 115.094 28.5672 115.094C28.2912 115.094 28.0452 115.154 27.8292 115.274C27.6192 115.394 27.4512 115.568 27.3252 115.796C27.1992 116.018 27.1362 116.285 27.1362 116.597C27.1362 116.903 27.1992 117.17 27.3252 117.398C27.4512 117.626 27.6192 117.8 27.8292 117.92C28.0452 118.04 28.2882 118.1 28.5582 118.1ZM32.3519 119V113.924C32.3519 113.42 32.4989 113.018 32.7929 112.718C33.0929 112.412 33.5189 112.259 34.0709 112.259C34.2689 112.259 34.4549 112.28 34.6289 112.322C34.8089 112.364 34.9589 112.43 35.0789 112.52L34.7729 113.366C34.6889 113.3 34.5929 113.252 34.4849 113.222C34.3769 113.186 34.2659 113.168 34.1519 113.168C33.9179 113.168 33.7409 113.234 33.6209 113.366C33.5009 113.492 33.4409 113.684 33.4409 113.942V114.482L33.4769 114.986V119H32.3519ZM31.5599 115.13V114.23H34.7639V115.13H31.5599ZM37.3302 119.063C36.8022 119.063 36.3942 118.928 36.1062 118.658C35.8182 118.382 35.6742 117.977 35.6742 117.443V113.132H36.7992V117.416C36.7992 117.644 36.8562 117.821 36.9702 117.947C37.0902 118.073 37.2552 118.136 37.4652 118.136C37.7172 118.136 37.9272 118.07 38.0952 117.938L38.4102 118.739C38.2782 118.847 38.1162 118.928 37.9242 118.982C37.7322 119.036 37.5342 119.063 37.3302 119.063ZM34.8822 115.13V114.23H38.0862V115.13H34.8822ZM40.3098 119L38.5458 114.194H39.6078L41.1198 118.433H40.6158L42.1998 114.194H43.1448L44.6838 118.433H44.1888L45.7458 114.194H46.7448L44.9718 119H43.8918L42.4878 115.247H42.8208L41.3898 119H40.3098ZM50.3299 119V118.028L50.2669 117.821V116.12C50.2669 115.79 50.1679 115.535 49.9699 115.355C49.7719 115.169 49.4719 115.076 49.0699 115.076C48.7999 115.076 48.5329 115.118 48.2689 115.202C48.0109 115.286 47.7919 115.403 47.6119 115.553L47.1709 114.734C47.4289 114.536 47.7349 114.389 48.0889 114.293C48.4489 114.191 48.8209 114.14 49.2049 114.14C49.9009 114.14 50.4379 114.308 50.8159 114.644C51.1999 114.974 51.3919 115.487 51.3919 116.183V119H50.3299ZM48.8179 119.063C48.4579 119.063 48.1429 119.003 47.8729 118.883C47.6029 118.757 47.3929 118.586 47.2429 118.37C47.0989 118.148 47.0269 117.899 47.0269 117.623C47.0269 117.353 47.0899 117.11 47.2159 116.894C47.3479 116.678 47.5609 116.507 47.8549 116.381C48.1489 116.255 48.5389 116.192 49.0249 116.192H50.4199V116.939H49.1059C48.7219 116.939 48.4639 117.002 48.3319 117.128C48.1999 117.248 48.1339 117.398 48.1339 117.578C48.1339 117.782 48.2149 117.944 48.3769 118.064C48.5389 118.184 48.7639 118.244 49.0519 118.244C49.3279 118.244 49.5739 118.181 49.7899 118.055C50.0119 117.929 50.1709 117.743 50.2669 117.497L50.4559 118.172C50.3479 118.454 50.1529 118.673 49.8709 118.829C49.5949 118.985 49.2439 119.063 48.8179 119.063ZM52.8357 119V114.194H53.9067V115.517L53.7807 115.13C53.9247 114.806 54.1497 114.56 54.4557 114.392C54.7677 114.224 55.1547 114.14 55.6167 114.14V115.211C55.5687 115.199 55.5237 115.193 55.4817 115.193C55.4397 115.187 55.3977 115.184 55.3557 115.184C54.9297 115.184 54.5907 115.31 54.3387 115.562C54.0867 115.808 53.9607 116.177 53.9607 116.669V119H52.8357ZM58.7861 119.063C58.2521 119.063 57.7841 118.958 57.3821 118.748C56.9861 118.532 56.6771 118.238 56.4551 117.866C56.2391 117.494 56.1311 117.071 56.1311 116.597C56.1311 116.117 56.2361 115.694 56.4461 115.328C56.6621 114.956 56.9561 114.665 57.3281 114.455C57.7061 114.245 58.1351 114.14 58.6151 114.14C59.0831 114.14 59.5001 114.242 59.8661 114.446C60.2321 114.65 60.5201 114.938 60.7301 115.31C60.9401 115.682 61.0451 116.12 61.0451 116.624C61.0451 116.672 61.0421 116.726 61.0361 116.786C61.0361 116.846 61.0331 116.903 61.0271 116.957H57.0221V116.21H60.4331L59.9921 116.444C59.9981 116.168 59.9411 115.925 59.8211 115.715C59.7011 115.505 59.5361 115.34 59.3261 115.22C59.1221 115.1 58.8851 115.04 58.6151 115.04C58.3391 115.04 58.0961 115.1 57.8861 115.22C57.6821 115.34 57.5201 115.508 57.4001 115.724C57.2861 115.934 57.2291 116.183 57.2291 116.471V116.651C57.2291 116.939 57.2951 117.194 57.4271 117.416C57.5591 117.638 57.7451 117.809 57.9851 117.929C58.2251 118.049 58.5011 118.109 58.8131 118.109C59.0831 118.109 59.3261 118.067 59.5421 117.983C59.7581 117.899 59.9501 117.767 60.1181 117.587L60.7211 118.28C60.5051 118.532 60.2321 118.727 59.9021 118.865C59.5781 118.997 59.2061 119.063 58.7861 119.063ZM65.801 115.319H68.933V116.282H65.801V115.319ZM65.891 118.019H69.446V119H64.721V112.7H69.32V113.681H65.891V118.019ZM73.3693 114.14C73.7533 114.14 74.0953 114.215 74.3953 114.365C74.7013 114.515 74.9413 114.746 75.1153 115.058C75.2893 115.364 75.3763 115.76 75.3763 116.246V119H74.2513V116.39C74.2513 115.964 74.1493 115.646 73.9453 115.436C73.7473 115.226 73.4683 115.121 73.1083 115.121C72.8443 115.121 72.6103 115.175 72.4063 115.283C72.2023 115.391 72.0433 115.553 71.9293 115.769C71.8213 115.979 71.7673 116.246 71.7673 116.57V119H70.6423V114.194H71.7133V115.49L71.5243 115.094C71.6923 114.788 71.9353 114.554 72.2533 114.392C72.5773 114.224 72.9493 114.14 73.3693 114.14ZM78.9902 120.809C78.5462 120.809 78.1112 120.749 77.6852 120.629C77.2652 120.515 76.9202 120.347 76.6502 120.125L77.1542 119.279C77.3642 119.453 77.6282 119.591 77.9462 119.693C78.2702 119.801 78.5972 119.855 78.9272 119.855C79.4552 119.855 79.8422 119.732 80.0882 119.486C80.3342 119.246 80.4572 118.883 80.4572 118.397V117.542L80.5472 116.453L80.5112 115.364V114.194H81.5822V118.271C81.5822 119.141 81.3602 119.78 80.9162 120.188C80.4722 120.602 79.8302 120.809 78.9902 120.809ZM78.8462 118.784C78.3902 118.784 77.9762 118.688 77.6042 118.496C77.2382 118.298 76.9472 118.025 76.7312 117.677C76.5212 117.329 76.4162 116.921 76.4162 116.453C76.4162 115.991 76.5212 115.586 76.7312 115.238C76.9472 114.89 77.2382 114.62 77.6042 114.428C77.9762 114.236 78.3902 114.14 78.8462 114.14C79.2542 114.14 79.6202 114.221 79.9442 114.383C80.2682 114.545 80.5262 114.797 80.7182 115.139C80.9162 115.481 81.0152 115.919 81.0152 116.453C81.0152 116.987 80.9162 117.428 80.7182 117.776C80.5262 118.118 80.2682 118.373 79.9442 118.541C79.6202 118.703 79.2542 118.784 78.8462 118.784ZM79.0172 117.83C79.2992 117.83 79.5512 117.773 79.7732 117.659C79.9952 117.539 80.1662 117.377 80.2862 117.173C80.4122 116.963 80.4752 116.723 80.4752 116.453C80.4752 116.183 80.4122 115.946 80.2862 115.742C80.1662 115.532 79.9952 115.373 79.7732 115.265C79.5512 115.151 79.2992 115.094 79.0172 115.094C78.7352 115.094 78.4802 115.151 78.2522 115.265C78.0302 115.373 77.8562 115.532 77.7302 115.742C77.6102 115.946 77.5502 116.183 77.5502 116.453C77.5502 116.723 77.6102 116.963 77.7302 117.173C77.8562 117.377 78.0302 117.539 78.2522 117.659C78.4802 117.773 78.7352 117.83 79.0172 117.83ZM83.0612 119V114.194H84.1862V119H83.0612ZM83.6282 113.402C83.4182 113.402 83.2442 113.336 83.1062 113.204C82.9742 113.072 82.9082 112.913 82.9082 112.727C82.9082 112.535 82.9742 112.376 83.1062 112.25C83.2442 112.118 83.4182 112.052 83.6282 112.052C83.8382 112.052 84.0092 112.115 84.1412 112.241C84.2792 112.361 84.3482 112.514 84.3482 112.7C84.3482 112.898 84.2822 113.066 84.1502 113.204C84.0182 113.336 83.8442 113.402 83.6282 113.402ZM88.3898 114.14C88.7738 114.14 89.1158 114.215 89.4158 114.365C89.7218 114.515 89.9618 114.746 90.1358 115.058C90.3098 115.364 90.3968 115.76 90.3968 116.246V119H89.2718V116.39C89.2718 115.964 89.1698 115.646 88.9658 115.436C88.7678 115.226 88.4888 115.121 88.1288 115.121C87.8648 115.121 87.6308 115.175 87.4268 115.283C87.2228 115.391 87.0638 115.553 86.9498 115.769C86.8418 115.979 86.7878 116.246 86.7878 116.57V119H85.6628V114.194H86.7338V115.49L86.5448 115.094C86.7128 114.788 86.9558 114.554 87.2738 114.392C87.5978 114.224 87.9698 114.14 88.3898 114.14ZM94.0917 119.063C93.5577 119.063 93.0897 118.958 92.6877 118.748C92.2917 118.532 91.9827 118.238 91.7607 117.866C91.5447 117.494 91.4367 117.071 91.4367 116.597C91.4367 116.117 91.5417 115.694 91.7517 115.328C91.9677 114.956 92.2617 114.665 92.6337 114.455C93.0117 114.245 93.4407 114.14 93.9207 114.14C94.3887 114.14 94.8057 114.242 95.1717 114.446C95.5377 114.65 95.8257 114.938 96.0357 115.31C96.2457 115.682 96.3507 116.12 96.3507 116.624C96.3507 116.672 96.3477 116.726 96.3417 116.786C96.3417 116.846 96.3387 116.903 96.3327 116.957H92.3277V116.21H95.7387L95.2977 116.444C95.3037 116.168 95.2467 115.925 95.1267 115.715C95.0067 115.505 94.8417 115.34 94.6317 115.22C94.4277 115.1 94.1907 115.04 93.9207 115.04C93.6447 115.04 93.4017 115.1 93.1917 115.22C92.9877 115.34 92.8257 115.508 92.7057 115.724C92.5917 115.934 92.5347 116.183 92.5347 116.471V116.651C92.5347 116.939 92.6007 117.194 92.7327 117.416C92.8647 117.638 93.0507 117.809 93.2907 117.929C93.5307 118.049 93.8067 118.109 94.1187 118.109C94.3887 118.109 94.6317 118.067 94.8477 117.983C95.0637 117.899 95.2557 117.767 95.4237 117.587L96.0267 118.28C95.8107 118.532 95.5377 118.727 95.2077 118.865C94.8837 118.997 94.5117 119.063 94.0917 119.063ZM99.6904 119.063C99.1564 119.063 98.6884 118.958 98.2864 118.748C97.8904 118.532 97.5814 118.238 97.3594 117.866C97.1434 117.494 97.0354 117.071 97.0354 116.597C97.0354 116.117 97.1404 115.694 97.3504 115.328C97.5664 114.956 97.8604 114.665 98.2324 114.455C98.6104 114.245 99.0394 114.14 99.5194 114.14C99.9874 114.14 100.404 114.242 100.77 114.446C101.136 114.65 101.424 114.938 101.634 115.31C101.844 115.682 101.949 116.12 101.949 116.624C101.949 116.672 101.946 116.726 101.94 116.786C101.94 116.846 101.937 116.903 101.931 116.957H97.9264V116.21H101.337L100.896 116.444C100.902 116.168 100.845 115.925 100.725 115.715C100.605 115.505 100.44 115.34 100.23 115.22C100.026 115.1 99.7894 115.04 99.5194 115.04C99.2434 115.04 99.0004 115.1 98.7904 115.22C98.5864 115.34 98.4244 115.508 98.3044 115.724C98.1904 115.934 98.1334 116.183 98.1334 116.471V116.651C98.1334 116.939 98.1994 117.194 98.3314 117.416C98.4634 117.638 98.6494 117.809 98.8894 117.929C99.1294 118.049 99.4054 118.109 99.7174 118.109C99.9874 118.109 100.23 118.067 100.446 117.983C100.662 117.899 100.854 117.767 101.022 117.587L101.625 118.28C101.409 118.532 101.136 118.727 100.806 118.865C100.482 118.997 100.11 119.063 99.6904 119.063ZM103.03 119V114.194H104.101V115.517L103.975 115.13C104.119 114.806 104.344 114.56 104.65 114.392C104.962 114.224 105.349 114.14 105.811 114.14V115.211C105.763 115.199 105.718 115.193 105.676 115.193C105.634 115.187 105.592 115.184 105.55 115.184C105.124 115.184 104.785 115.31 104.533 115.562C104.281 115.808 104.155 116.177 104.155 116.669V119H103.03ZM106.765 119V114.194H107.89V119H106.765ZM107.332 113.402C107.122 113.402 106.948 113.336 106.81 113.204C106.678 113.072 106.612 112.913 106.612 112.727C106.612 112.535 106.678 112.376 106.81 112.25C106.948 112.118 107.122 112.052 107.332 112.052C107.542 112.052 107.713 112.115 107.845 112.241C107.983 112.361 108.052 112.514 108.052 112.7C108.052 112.898 107.986 113.066 107.854 113.204C107.722 113.336 107.548 113.402 107.332 113.402ZM112.094 114.14C112.478 114.14 112.82 114.215 113.12 114.365C113.426 114.515 113.666 114.746 113.84 115.058C114.014 115.364 114.101 115.76 114.101 116.246V119H112.976V116.39C112.976 115.964 112.874 115.646 112.67 115.436C112.472 115.226 112.193 115.121 111.833 115.121C111.569 115.121 111.335 115.175 111.131 115.283C110.927 115.391 110.768 115.553 110.654 115.769C110.546 115.979 110.492 116.246 110.492 116.57V119H109.367V114.194H110.438V115.49L110.249 115.094C110.417 114.788 110.66 114.554 110.978 114.392C111.302 114.224 111.674 114.14 112.094 114.14ZM117.715 120.809C117.271 120.809 116.836 120.749 116.41 120.629C115.99 120.515 115.645 120.347 115.375 120.125L115.879 119.279C116.089 119.453 116.353 119.591 116.671 119.693C116.995 119.801 117.322 119.855 117.652 119.855C118.18 119.855 118.567 119.732 118.813 119.486C119.059 119.246 119.182 118.883 119.182 118.397V117.542L119.272 116.453L119.236 115.364V114.194H120.307V118.271C120.307 119.141 120.085 119.78 119.641 120.188C119.197 120.602 118.555 120.809 117.715 120.809ZM117.571 118.784C117.115 118.784 116.701 118.688 116.329 118.496C115.963 118.298 115.672 118.025 115.456 117.677C115.246 117.329 115.141 116.921 115.141 116.453C115.141 115.991 115.246 115.586 115.456 115.238C115.672 114.89 115.963 114.62 116.329 114.428C116.701 114.236 117.115 114.14 117.571 114.14C117.979 114.14 118.345 114.221 118.669 114.383C118.993 114.545 119.251 114.797 119.443 115.139C119.641 115.481 119.74 115.919 119.74 116.453C119.74 116.987 119.641 117.428 119.443 117.776C119.251 118.118 118.993 118.373 118.669 118.541C118.345 118.703 117.979 118.784 117.571 118.784ZM117.742 117.83C118.024 117.83 118.276 117.773 118.498 117.659C118.72 117.539 118.891 117.377 119.011 117.173C119.137 116.963 119.2 116.723 119.2 116.453C119.2 116.183 119.137 115.946 119.011 115.742C118.891 115.532 118.72 115.373 118.498 115.265C118.276 115.151 118.024 115.094 117.742 115.094C117.46 115.094 117.205 115.151 116.977 115.265C116.755 115.373 116.581 115.532 116.455 115.742C116.335 115.946 116.275 116.183 116.275 116.453C116.275 116.723 116.335 116.963 116.455 117.173C116.581 117.377 116.755 117.539 116.977 117.659C117.205 117.773 117.46 117.83 117.742 117.83Z" fill="white"/>
<path d="M132.917 115.598H136.058V116.588H132.917V115.598ZM133.016 119H131.846V112.7H136.445V113.681H133.016V119ZM139.371 119.063C138.963 119.063 138.603 118.988 138.291 118.838C137.979 118.682 137.736 118.448 137.562 118.136C137.388 117.818 137.301 117.419 137.301 116.939V114.194H138.426V116.786C138.426 117.218 138.522 117.542 138.714 117.758C138.912 117.968 139.191 118.073 139.551 118.073C139.815 118.073 140.043 118.019 140.235 117.911C140.433 117.803 140.586 117.641 140.694 117.425C140.808 117.209 140.865 116.942 140.865 116.624V114.194H141.99V119H140.919V117.704L141.108 118.1C140.946 118.412 140.709 118.652 140.397 118.82C140.085 118.982 139.743 119.063 139.371 119.063ZM143.463 119V112.322H144.588V119H143.463ZM146.064 119V112.322H147.189V119H146.064ZM148.423 116.966V116.03H150.898V116.966H148.423ZM154.058 119.09C153.566 119.09 153.095 119.021 152.645 118.883C152.195 118.739 151.838 118.556 151.574 118.334L151.979 117.425C152.231 117.623 152.543 117.788 152.915 117.92C153.287 118.052 153.668 118.118 154.058 118.118C154.388 118.118 154.655 118.082 154.859 118.01C155.063 117.938 155.213 117.842 155.309 117.722C155.405 117.596 155.453 117.455 155.453 117.299C155.453 117.107 155.384 116.954 155.246 116.84C155.108 116.72 154.928 116.627 154.706 116.561C154.49 116.489 154.247 116.423 153.977 116.363C153.713 116.303 153.446 116.234 153.176 116.156C152.912 116.072 152.669 115.967 152.447 115.841C152.231 115.709 152.054 115.535 151.916 115.319C151.778 115.103 151.709 114.827 151.709 114.491C151.709 114.149 151.799 113.837 151.979 113.555C152.165 113.267 152.444 113.039 152.816 112.871C153.194 112.697 153.671 112.61 154.247 112.61C154.625 112.61 155 112.658 155.372 112.754C155.744 112.85 156.068 112.988 156.344 113.168L155.975 114.077C155.693 113.909 155.402 113.786 155.102 113.708C154.802 113.624 154.514 113.582 154.238 113.582C153.914 113.582 153.65 113.621 153.446 113.699C153.248 113.777 153.101 113.879 153.005 114.005C152.915 114.131 152.87 114.275 152.87 114.437C152.87 114.629 152.936 114.785 153.068 114.905C153.206 115.019 153.383 115.109 153.599 115.175C153.821 115.241 154.067 115.307 154.337 115.373C154.607 115.433 154.874 115.502 155.138 115.58C155.408 115.658 155.651 115.76 155.867 115.886C156.089 116.012 156.266 116.183 156.398 116.399C156.536 116.615 156.605 116.888 156.605 117.218C156.605 117.554 156.512 117.866 156.326 118.154C156.146 118.436 155.867 118.664 155.489 118.838C155.111 119.006 154.634 119.09 154.058 119.09ZM159.466 119.063C158.938 119.063 158.53 118.928 158.242 118.658C157.954 118.382 157.81 117.977 157.81 117.443V113.132H158.935V117.416C158.935 117.644 158.992 117.821 159.106 117.947C159.226 118.073 159.391 118.136 159.601 118.136C159.853 118.136 160.063 118.07 160.231 117.938L160.546 118.739C160.414 118.847 160.252 118.928 160.06 118.982C159.868 119.036 159.67 119.063 159.466 119.063ZM157.018 115.13V114.23H160.222V115.13H157.018ZM164.432 119V118.028L164.369 117.821V116.12C164.369 115.79 164.27 115.535 164.072 115.355C163.874 115.169 163.574 115.076 163.172 115.076C162.902 115.076 162.635 115.118 162.371 115.202C162.113 115.286 161.894 115.403 161.714 115.553L161.273 114.734C161.531 114.536 161.837 114.389 162.191 114.293C162.551 114.191 162.923 114.14 163.307 114.14C164.003 114.14 164.54 114.308 164.918 114.644C165.302 114.974 165.494 115.487 165.494 116.183V119H164.432ZM162.92 119.063C162.56 119.063 162.245 119.003 161.975 118.883C161.705 118.757 161.495 118.586 161.345 118.37C161.201 118.148 161.129 117.899 161.129 117.623C161.129 117.353 161.192 117.11 161.318 116.894C161.45 116.678 161.663 116.507 161.957 116.381C162.251 116.255 162.641 116.192 163.127 116.192H164.522V116.939H163.208C162.824 116.939 162.566 117.002 162.434 117.128C162.302 117.248 162.236 117.398 162.236 117.578C162.236 117.782 162.317 117.944 162.479 118.064C162.641 118.184 162.866 118.244 163.154 118.244C163.43 118.244 163.676 118.181 163.892 118.055C164.114 117.929 164.273 117.743 164.369 117.497L164.558 118.172C164.45 118.454 164.255 118.673 163.973 118.829C163.697 118.985 163.346 119.063 162.92 119.063ZM169.152 119.063C168.648 119.063 168.198 118.958 167.802 118.748C167.412 118.532 167.106 118.238 166.884 117.866C166.662 117.494 166.551 117.071 166.551 116.597C166.551 116.117 166.662 115.694 166.884 115.328C167.106 114.956 167.412 114.665 167.802 114.455C168.198 114.245 168.648 114.14 169.152 114.14C169.62 114.14 170.031 114.236 170.385 114.428C170.745 114.614 171.018 114.89 171.204 115.256L170.34 115.76C170.196 115.532 170.019 115.364 169.809 115.256C169.605 115.148 169.383 115.094 169.143 115.094C168.867 115.094 168.618 115.154 168.396 115.274C168.174 115.394 168 115.568 167.874 115.796C167.748 116.018 167.685 116.285 167.685 116.597C167.685 116.909 167.748 117.179 167.874 117.407C168 117.629 168.174 117.8 168.396 117.92C168.618 118.04 168.867 118.1 169.143 118.1C169.383 118.1 169.605 118.046 169.809 117.938C170.019 117.83 170.196 117.662 170.34 117.434L171.204 117.938C171.018 118.298 170.745 118.577 170.385 118.775C170.031 118.967 169.62 119.063 169.152 119.063ZM173.051 117.929L173.078 116.516L175.589 114.194H176.939L174.806 116.336L174.212 116.831L173.051 117.929ZM172.133 119V112.322H173.258V119H172.133ZM175.76 119L174.005 116.831L174.716 115.931L177.128 119H175.76Z" fill="white"/>
<path d="M187.846 119V112.7H190.438C190.996 112.7 191.473 112.79 191.869 112.97C192.271 113.15 192.58 113.408 192.796 113.744C193.012 114.08 193.12 114.479 193.12 114.941C193.12 115.403 193.012 115.802 192.796 116.138C192.58 116.468 192.271 116.723 191.869 116.903C191.473 117.077 190.996 117.164 190.438 117.164H188.494L189.016 116.633V119H187.846ZM191.968 119L190.375 116.714H191.626L193.228 119H191.968ZM189.016 116.759L188.494 116.201H190.384C190.9 116.201 191.287 116.09 191.545 115.868C191.809 115.646 191.941 115.337 191.941 114.941C191.941 114.539 191.809 114.23 191.545 114.014C191.287 113.798 190.9 113.69 190.384 113.69H188.494L189.016 113.114V116.759ZM196.58 119.063C196.046 119.063 195.578 118.958 195.176 118.748C194.78 118.532 194.471 118.238 194.249 117.866C194.033 117.494 193.925 117.071 193.925 116.597C193.925 116.117 194.03 115.694 194.24 115.328C194.456 114.956 194.75 114.665 195.122 114.455C195.5 114.245 195.929 114.14 196.409 114.14C196.877 114.14 197.294 114.242 197.66 114.446C198.026 114.65 198.314 114.938 198.524 115.31C198.734 115.682 198.839 116.12 198.839 116.624C198.839 116.672 198.836 116.726 198.83 116.786C198.83 116.846 198.827 116.903 198.821 116.957H194.816V116.21H198.227L197.786 116.444C197.792 116.168 197.735 115.925 197.615 115.715C197.495 115.505 197.33 115.34 197.12 115.22C196.916 115.1 196.679 115.04 196.409 115.04C196.133 115.04 195.89 115.1 195.68 115.22C195.476 115.34 195.314 115.508 195.194 115.724C195.08 115.934 195.023 116.183 195.023 116.471V116.651C195.023 116.939 195.089 117.194 195.221 117.416C195.353 117.638 195.539 117.809 195.779 117.929C196.019 118.049 196.295 118.109 196.607 118.109C196.877 118.109 197.12 118.067 197.336 117.983C197.552 117.899 197.744 117.767 197.912 117.587L198.515 118.28C198.299 118.532 198.026 118.727 197.696 118.865C197.372 118.997 197 119.063 196.58 119.063ZM202.749 119V118.028L202.686 117.821V116.12C202.686 115.79 202.587 115.535 202.389 115.355C202.191 115.169 201.891 115.076 201.489 115.076C201.219 115.076 200.952 115.118 200.688 115.202C200.43 115.286 200.211 115.403 200.031 115.553L199.59 114.734C199.848 114.536 200.154 114.389 200.508 114.293C200.868 114.191 201.24 114.14 201.624 114.14C202.32 114.14 202.857 114.308 203.235 114.644C203.619 114.974 203.811 115.487 203.811 116.183V119H202.749ZM201.237 119.063C200.877 119.063 200.562 119.003 200.292 118.883C200.022 118.757 199.812 118.586 199.662 118.37C199.518 118.148 199.446 117.899 199.446 117.623C199.446 117.353 199.509 117.11 199.635 116.894C199.767 116.678 199.98 116.507 200.274 116.381C200.568 116.255 200.958 116.192 201.444 116.192H202.839V116.939H201.525C201.141 116.939 200.883 117.002 200.751 117.128C200.619 117.248 200.553 117.398 200.553 117.578C200.553 117.782 200.634 117.944 200.796 118.064C200.958 118.184 201.183 118.244 201.471 118.244C201.747 118.244 201.993 118.181 202.209 118.055C202.431 117.929 202.59 117.743 202.686 117.497L202.875 118.172C202.767 118.454 202.572 118.673 202.29 118.829C202.014 118.985 201.663 119.063 201.237 119.063ZM207.468 119.063C206.964 119.063 206.514 118.958 206.118 118.748C205.728 118.532 205.422 118.238 205.2 117.866C204.978 117.494 204.867 117.071 204.867 116.597C204.867 116.117 204.978 115.694 205.2 115.328C205.422 114.956 205.728 114.665 206.118 114.455C206.514 114.245 206.964 114.14 207.468 114.14C207.936 114.14 208.347 114.236 208.701 114.428C209.061 114.614 209.334 114.89 209.52 115.256L208.656 115.76C208.512 115.532 208.335 115.364 208.125 115.256C207.921 115.148 207.699 115.094 207.459 115.094C207.183 115.094 206.934 115.154 206.712 115.274C206.49 115.394 206.316 115.568 206.19 115.796C206.064 116.018 206.001 116.285 206.001 116.597C206.001 116.909 206.064 117.179 206.19 117.407C206.316 117.629 206.49 117.8 206.712 117.92C206.934 118.04 207.183 118.1 207.459 118.1C207.699 118.1 207.921 118.046 208.125 117.938C208.335 117.83 208.512 117.662 208.656 117.434L209.52 117.938C209.334 118.298 209.061 118.577 208.701 118.775C208.347 118.967 207.936 119.063 207.468 119.063ZM212.363 119.063C211.835 119.063 211.427 118.928 211.139 118.658C210.851 118.382 210.707 117.977 210.707 117.443V113.132H211.832V117.416C211.832 117.644 211.889 117.821 212.003 117.947C212.123 118.073 212.288 118.136 212.498 118.136C212.75 118.136 212.96 118.07 213.128 117.938L213.443 118.739C213.311 118.847 213.149 118.928 212.957 118.982C212.765 119.036 212.567 119.063 212.363 119.063ZM209.915 115.13V114.23H213.119V115.13H209.915ZM217.945 119.09C217.543 119.09 217.171 119.012 216.829 118.856C216.493 118.7 216.217 118.475 216.001 118.181L216.667 117.38C216.841 117.62 217.03 117.8 217.234 117.92C217.444 118.04 217.672 118.1 217.918 118.1C218.572 118.1 218.899 117.713 218.899 116.939V113.681H216.658V112.7H220.069V116.876C220.069 117.62 219.886 118.175 219.52 118.541C219.16 118.907 218.635 119.09 217.945 119.09ZM223.087 119.063C222.685 119.063 222.298 119.012 221.926 118.91C221.56 118.802 221.269 118.673 221.053 118.523L221.485 117.668C221.701 117.806 221.959 117.92 222.259 118.01C222.559 118.1 222.859 118.145 223.159 118.145C223.513 118.145 223.768 118.097 223.924 118.001C224.086 117.905 224.167 117.776 224.167 117.614C224.167 117.482 224.113 117.383 224.005 117.317C223.897 117.245 223.756 117.191 223.582 117.155C223.408 117.119 223.213 117.086 222.997 117.056C222.787 117.026 222.574 116.987 222.358 116.939C222.148 116.885 221.956 116.81 221.782 116.714C221.608 116.612 221.467 116.477 221.359 116.309C221.251 116.141 221.197 115.919 221.197 115.643C221.197 115.337 221.284 115.073 221.458 114.851C221.632 114.623 221.875 114.449 222.187 114.329C222.505 114.203 222.88 114.14 223.312 114.14C223.636 114.14 223.963 114.176 224.293 114.248C224.623 114.32 224.896 114.422 225.112 114.554L224.68 115.409C224.452 115.271 224.221 115.178 223.987 115.13C223.759 115.076 223.531 115.049 223.303 115.049C222.961 115.049 222.706 115.1 222.538 115.202C222.376 115.304 222.295 115.433 222.295 115.589C222.295 115.733 222.349 115.841 222.457 115.913C222.565 115.985 222.706 116.042 222.88 116.084C223.054 116.126 223.246 116.162 223.456 116.192C223.672 116.216 223.885 116.255 224.095 116.309C224.305 116.363 224.497 116.438 224.671 116.534C224.851 116.624 224.995 116.753 225.103 116.921C225.211 117.089 225.265 117.308 225.265 117.578C225.265 117.878 225.175 118.139 224.995 118.361C224.821 118.583 224.572 118.757 224.248 118.883C223.924 119.003 223.537 119.063 223.087 119.063Z" fill="white"/>
<circle cx="126.5" cy="116.5" r="1.5" fill="white"/>
<circle cx="182.5" cy="116.5" r="1.5" fill="white"/>
<path d="M314.072 142.724C314.072 143.324 313.976 143.896 313.784 144.44C313.584 144.984 313.32 145.416 312.992 145.736L312.308 145.316C312.588 145.052 312.82 144.692 313.004 144.236C313.188 143.772 313.28 143.272 313.28 142.736C313.28 142.024 313.124 141.484 312.812 141.116C312.492 140.74 312.076 140.552 311.564 140.552C311.204 140.552 310.896 140.64 310.64 140.816C310.376 140.984 310.172 141.272 310.028 141.68C309.884 142.088 309.812 142.648 309.812 143.36L309.812 145.148L305.6 144.716L305.6 140.12L306.368 140.12L306.368 144.368L305.948 143.924L309.476 144.296L309.044 144.74L309.044 143.168C309.044 142.32 309.148 141.64 309.356 141.128C309.564 140.616 309.856 140.248 310.232 140.024C310.6 139.792 311.032 139.676 311.528 139.676C312 139.676 312.432 139.788 312.824 140.012C313.208 140.236 313.512 140.572 313.736 141.02C313.96 141.468 314.072 142.036 314.072 142.724ZM314 134.694L305.6 134.694L305.6 133.962L312.152 130.122L312.152 130.506L305.6 126.702L305.6 125.97L314 125.97L314 126.822L306.932 126.822L306.932 126.618L312.932 130.122L312.932 130.542L306.932 134.07L306.932 133.842L314 133.842L314 134.694ZM314.06 120.738C314.06 121.394 313.924 121.97 313.652 122.466C313.372 122.962 312.992 123.35 312.512 123.63C312.024 123.91 311.468 124.05 310.844 124.05C310.22 124.05 309.668 123.918 309.188 123.654C308.708 123.382 308.332 123.014 308.06 122.55C307.78 122.078 307.64 121.55 307.64 120.966C307.64 120.374 307.776 119.85 308.048 119.394C308.312 118.93 308.688 118.566 309.176 118.302C309.656 118.038 310.212 117.906 310.844 117.906C310.884 117.906 310.928 117.91 310.976 117.918C311.016 117.918 311.06 117.918 311.108 117.918L311.108 123.402L310.472 123.402L310.472 118.374L310.724 118.71C310.268 118.71 309.864 118.81 309.512 119.01C309.152 119.202 308.872 119.466 308.672 119.802C308.472 120.138 308.372 120.526 308.372 120.966C308.372 121.398 308.472 121.786 308.672 122.13C308.872 122.474 309.152 122.742 309.512 122.934C309.872 123.126 310.284 123.222 310.748 123.222L310.88 123.222C311.36 123.222 311.784 123.118 312.152 122.91C312.512 122.694 312.796 122.398 313.004 122.022C313.204 121.638 313.304 121.202 313.304 120.714C313.304 120.33 313.236 119.974 313.1 119.646C312.964 119.31 312.756 119.022 312.476 118.782L313.028 118.302C313.364 118.582 313.62 118.934 313.796 119.358C313.972 119.774 314.06 120.234 314.06 120.738ZM307.64 108.299C307.64 107.787 307.74 107.343 307.94 106.967C308.132 106.583 308.428 106.287 308.828 106.079C309.228 105.863 309.732 105.755 310.34 105.755L314 105.755L314 106.607L310.424 106.607C309.76 106.607 309.26 106.767 308.924 107.087C308.58 107.399 308.408 107.843 308.408 108.419C308.408 108.851 308.5 109.227 308.684 109.547C308.86 109.859 309.12 110.103 309.464 110.279C309.8 110.447 310.208 110.531 310.688 110.531L314 110.531L314 111.383L310.424 111.383C309.76 111.383 309.26 111.543 308.924 111.863C308.58 112.183 308.408 112.631 308.408 113.207C308.408 113.631 308.5 114.003 308.684 114.323C308.86 114.643 309.12 114.891 309.464 115.067C309.8 115.235 310.208 115.319 310.688 115.319L314 115.319L314 116.171L307.7 116.171L307.7 115.355L309.404 115.355L309.104 115.487C308.648 115.295 308.292 114.987 308.036 114.563C307.772 114.131 307.64 113.623 307.64 113.039C307.64 112.423 307.796 111.899 308.108 111.467C308.412 111.035 308.872 110.755 309.488 110.627L309.356 110.963C308.844 110.779 308.432 110.455 308.12 109.991C307.8 109.519 307.64 108.955 307.64 108.299ZM314.06 100.193C314.06 100.745 313.936 101.241 313.688 101.681C313.432 102.121 313.064 102.469 312.584 102.725C312.104 102.981 311.524 103.109 310.844 103.109C310.156 103.109 309.576 102.981 309.104 102.725C308.624 102.461 308.26 102.109 308.012 101.669C307.764 101.229 307.64 100.737 307.64 100.193C307.64 99.5928 307.776 99.0568 308.048 98.5848C308.312 98.1048 308.684 97.7288 309.164 97.4568C309.644 97.1848 310.204 97.0488 310.844 97.0488C311.476 97.0488 312.036 97.1848 312.524 97.4568C313.004 97.7288 313.38 98.1048 313.652 98.5848C313.924 99.0568 314.06 99.5928 314.06 100.193ZM314 103.445L305.096 103.445L305.096 102.593L309.56 102.593L310.832 102.713L312.104 102.629L314 102.629L314 103.445ZM313.304 100.253C313.304 99.8048 313.204 99.4048 313.004 99.0528C312.796 98.7008 312.508 98.4208 312.14 98.2128C311.764 98.0048 311.332 97.9008 310.844 97.9008C310.348 97.9008 309.916 98.0048 309.548 98.2128C309.18 98.4208 308.896 98.7008 308.696 99.0528C308.488 99.4048 308.384 99.8048 308.384 100.253C308.384 100.701 308.488 101.105 308.696 101.465C308.896 101.817 309.18 102.097 309.548 102.305C309.916 102.505 310.348 102.605 310.844 102.605C311.332 102.605 311.764 102.505 312.14 102.305C312.508 102.097 312.796 101.817 313.004 101.465C313.204 101.105 313.304 100.701 313.304 100.253ZM314.06 92.636C314.06 93.292 313.924 93.868 313.652 94.364C313.372 94.86 312.992 95.248 312.512 95.528C312.024 95.808 311.468 95.948 310.844 95.948C310.22 95.948 309.668 95.816 309.188 95.552C308.708 95.28 308.332 94.912 308.06 94.448C307.78 93.976 307.64 93.448 307.64 92.864C307.64 92.272 307.776 91.748 308.048 91.292C308.312 90.828 308.688 90.464 309.176 90.2C309.656 89.936 310.212 89.804 310.844 89.804C310.884 89.804 310.928 89.808 310.976 89.816C311.016 89.816 311.06 89.816 311.108 89.816L311.108 95.3L310.472 95.3L310.472 90.272L310.724 90.608C310.268 90.608 309.864 90.708 309.512 90.908C309.152 91.1 308.872 91.364 308.672 91.7C308.472 92.036 308.372 92.424 308.372 92.864C308.372 93.296 308.472 93.684 308.672 94.028C308.872 94.372 309.152 94.64 309.512 94.832C309.872 95.024 310.284 95.12 310.748 95.12L310.88 95.12C311.36 95.12 311.784 95.016 312.152 94.808C312.512 94.592 312.796 94.296 313.004 93.92C313.204 93.536 313.304 93.1 313.304 92.612C313.304 92.228 313.236 91.872 313.1 91.544C312.964 91.208 312.756 90.92 312.476 90.68L313.028 90.2C313.364 90.48 313.62 90.832 313.796 91.256C313.972 91.672 314.06 92.132 314.06 92.636ZM314 88.0698L307.7 88.0698L307.7 87.2538L309.416 87.2538L309.116 87.3378C308.636 87.1618 308.272 86.8658 308.024 86.4498C307.768 86.0338 307.64 85.5178 307.64 84.9018L308.468 84.9018C308.468 84.9338 308.468 84.9658 308.468 84.9978C308.46 85.0298 308.456 85.0618 308.456 85.0938C308.456 85.7578 308.66 86.2778 309.068 86.6538C309.468 87.0298 310.04 87.2178 310.784 87.2178L314 87.2178L314 88.0698ZM314.06 81.5848C314.06 82.1048 313.988 82.5968 313.844 83.0608C313.692 83.5248 313.504 83.8888 313.28 84.1528L312.608 83.7688C312.8 83.5128 312.968 83.1848 313.112 82.7848C313.248 82.3848 313.316 81.9648 313.316 81.5248C313.316 80.9248 313.224 80.4928 313.04 80.2288C312.848 79.9648 312.596 79.8328 312.284 79.8328C312.052 79.8328 311.872 79.9088 311.744 80.0608C311.608 80.2048 311.508 80.3968 311.444 80.6368C311.372 80.8768 311.312 81.1448 311.264 81.4408C311.216 81.7368 311.16 82.0328 311.096 82.3288C311.032 82.6168 310.94 82.8808 310.82 83.1208C310.692 83.3608 310.52 83.5568 310.304 83.7088C310.088 83.8528 309.8 83.9248 309.44 83.9248C309.096 83.9248 308.788 83.8288 308.516 83.6368C308.244 83.4448 308.032 83.1648 307.88 82.7968C307.72 82.4208 307.64 81.9648 307.64 81.4288C307.64 81.0208 307.696 80.6128 307.808 80.2048C307.912 79.7968 308.052 79.4608 308.228 79.1968L308.912 79.5688C308.72 79.8488 308.584 80.1488 308.504 80.4688C308.416 80.7888 308.372 81.1088 308.372 81.4288C308.372 81.9968 308.472 82.4168 308.672 82.6888C308.864 82.9528 309.112 83.0848 309.416 83.0848C309.656 83.0848 309.844 83.0128 309.98 82.8688C310.116 82.7168 310.224 82.5208 310.304 82.2808C310.376 82.0328 310.436 81.7648 310.484 81.4768C310.532 81.1808 310.592 80.8888 310.664 80.6008C310.728 80.3048 310.82 80.0368 310.94 79.7968C311.052 79.5488 311.216 79.3528 311.432 79.2088C311.64 79.0568 311.916 78.9808 312.26 78.9808C312.628 78.9808 312.948 79.0848 313.22 79.2928C313.484 79.4928 313.692 79.7888 313.844 80.1808C313.988 80.5648 314.06 81.0328 314.06 81.5848Z" fill="white"/>
<path d="M279.026 25V18.7H279.575L282.455 23.614H282.167L285.02 18.7H285.569V25H284.93V19.699H285.083L282.455 24.199H282.14L279.494 19.699H279.665V25H279.026ZM289.494 25.045C289.002 25.045 288.57 24.943 288.198 24.739C287.826 24.529 287.535 24.244 287.325 23.884C287.115 23.518 287.01 23.101 287.01 22.633C287.01 22.165 287.109 21.751 287.307 21.391C287.511 21.031 287.787 20.749 288.135 20.545C288.489 20.335 288.885 20.23 289.323 20.23C289.767 20.23 290.16 20.332 290.502 20.536C290.85 20.734 291.123 21.016 291.321 21.382C291.519 21.742 291.618 22.159 291.618 22.633C291.618 22.663 291.615 22.696 291.609 22.732C291.609 22.762 291.609 22.795 291.609 22.831H287.496V22.354H291.267L291.015 22.543C291.015 22.201 290.94 21.898 290.79 21.634C290.646 21.364 290.448 21.154 290.196 21.004C289.944 20.854 289.653 20.779 289.323 20.779C288.999 20.779 288.708 20.854 288.45 21.004C288.192 21.154 287.991 21.364 287.847 21.634C287.703 21.904 287.631 22.213 287.631 22.561V22.66C287.631 23.02 287.709 23.338 287.865 23.614C288.027 23.884 288.249 24.097 288.531 24.253C288.819 24.403 289.146 24.478 289.512 24.478C289.8 24.478 290.067 24.427 290.313 24.325C290.565 24.223 290.781 24.067 290.961 23.857L291.321 24.271C291.111 24.523 290.847 24.715 290.529 24.847C290.217 24.979 289.872 25.045 289.494 25.045ZM298.822 20.23C299.206 20.23 299.539 20.305 299.821 20.455C300.109 20.599 300.331 20.821 300.487 21.121C300.649 21.421 300.73 21.799 300.73 22.255V25H300.091V22.318C300.091 21.82 299.971 21.445 299.731 21.193C299.497 20.935 299.164 20.806 298.732 20.806C298.408 20.806 298.126 20.875 297.886 21.013C297.652 21.145 297.469 21.34 297.337 21.598C297.211 21.85 297.148 22.156 297.148 22.516V25H296.509V22.318C296.509 21.82 296.389 21.445 296.149 21.193C295.909 20.935 295.573 20.806 295.141 20.806C294.823 20.806 294.544 20.875 294.304 21.013C294.064 21.145 293.878 21.34 293.746 21.598C293.62 21.85 293.557 22.156 293.557 22.516V25H292.918V20.275H293.53V21.553L293.431 21.328C293.575 20.986 293.806 20.719 294.124 20.527C294.448 20.329 294.829 20.23 295.267 20.23C295.729 20.23 296.122 20.347 296.446 20.581C296.77 20.809 296.98 21.154 297.076 21.616L296.824 21.517C296.962 21.133 297.205 20.824 297.553 20.59C297.907 20.35 298.33 20.23 298.822 20.23ZM304.902 25.045C304.488 25.045 304.116 24.952 303.786 24.766C303.456 24.574 303.195 24.298 303.003 23.938C302.811 23.578 302.715 23.143 302.715 22.633C302.715 22.117 302.811 21.682 303.003 21.328C303.201 20.968 303.465 20.695 303.795 20.509C304.125 20.323 304.494 20.23 304.902 20.23C305.352 20.23 305.754 20.332 306.108 20.536C306.468 20.734 306.75 21.013 306.954 21.373C307.158 21.733 307.26 22.153 307.26 22.633C307.26 23.107 307.158 23.527 306.954 23.893C306.75 24.253 306.468 24.535 306.108 24.739C305.754 24.943 305.352 25.045 304.902 25.045ZM302.463 25V18.322H303.102V21.67L303.012 22.624L303.075 23.578V25H302.463ZM304.857 24.478C305.193 24.478 305.493 24.403 305.757 24.253C306.021 24.097 306.231 23.881 306.387 23.605C306.543 23.323 306.621 22.999 306.621 22.633C306.621 22.261 306.543 21.937 306.387 21.661C306.231 21.385 306.021 21.172 305.757 21.022C305.493 20.866 305.193 20.788 304.857 20.788C304.521 20.788 304.218 20.866 303.948 21.022C303.684 21.172 303.474 21.385 303.318 21.661C303.168 21.937 303.093 22.261 303.093 22.633C303.093 22.999 303.168 23.323 303.318 23.605C303.474 23.881 303.684 24.097 303.948 24.253C304.218 24.403 304.521 24.478 304.857 24.478ZM310.57 25.045C310.078 25.045 309.646 24.943 309.274 24.739C308.902 24.529 308.611 24.244 308.401 23.884C308.191 23.518 308.086 23.101 308.086 22.633C308.086 22.165 308.185 21.751 308.383 21.391C308.587 21.031 308.863 20.749 309.211 20.545C309.565 20.335 309.961 20.23 310.399 20.23C310.843 20.23 311.236 20.332 311.578 20.536C311.926 20.734 312.199 21.016 312.397 21.382C312.595 21.742 312.694 22.159 312.694 22.633C312.694 22.663 312.691 22.696 312.685 22.732C312.685 22.762 312.685 22.795 312.685 22.831H308.572V22.354H312.343L312.091 22.543C312.091 22.201 312.016 21.898 311.866 21.634C311.722 21.364 311.524 21.154 311.272 21.004C311.02 20.854 310.729 20.779 310.399 20.779C310.075 20.779 309.784 20.854 309.526 21.004C309.268 21.154 309.067 21.364 308.923 21.634C308.779 21.904 308.707 22.213 308.707 22.561V22.66C308.707 23.02 308.785 23.338 308.941 23.614C309.103 23.884 309.325 24.097 309.607 24.253C309.895 24.403 310.222 24.478 310.588 24.478C310.876 24.478 311.143 24.427 311.389 24.325C311.641 24.223 311.857 24.067 312.037 23.857L312.397 24.271C312.187 24.523 311.923 24.715 311.605 24.847C311.293 24.979 310.948 25.045 310.57 25.045ZM313.995 25V20.275H314.607V21.562L314.544 21.337C314.676 20.977 314.898 20.704 315.21 20.518C315.522 20.326 315.909 20.23 316.371 20.23V20.851C316.347 20.851 316.323 20.851 316.299 20.851C316.275 20.845 316.251 20.842 316.227 20.842C315.729 20.842 315.339 20.995 315.057 21.301C314.775 21.601 314.634 22.03 314.634 22.588V25H313.995Z" fill="white"/>
<path d="M22.763 142L19.991 135.7H20.963L23.51 141.514H22.952L25.517 135.7H26.417L23.654 142H22.763ZM28.858 142.054C28.348 142.054 27.898 141.949 27.508 141.739C27.124 141.529 26.824 141.241 26.608 140.875C26.398 140.509 26.293 140.089 26.293 139.615C26.293 139.141 26.395 138.721 26.599 138.355C26.809 137.989 27.094 137.704 27.454 137.5C27.82 137.29 28.231 137.185 28.687 137.185C29.149 137.185 29.557 137.287 29.911 137.491C30.265 137.695 30.541 137.983 30.739 138.355C30.943 138.721 31.045 139.15 31.045 139.642C31.045 139.678 31.042 139.72 31.036 139.768C31.036 139.816 31.033 139.861 31.027 139.903H26.968V139.282H30.577L30.226 139.498C30.232 139.192 30.169 138.919 30.037 138.679C29.905 138.439 29.722 138.253 29.488 138.121C29.26 137.983 28.993 137.914 28.687 137.914C28.387 137.914 28.12 137.983 27.886 138.121C27.652 138.253 27.469 138.442 27.337 138.688C27.205 138.928 27.139 139.204 27.139 139.516V139.66C27.139 139.978 27.211 140.263 27.355 140.515C27.505 140.761 27.712 140.953 27.976 141.091C28.24 141.229 28.543 141.298 28.885 141.298C29.167 141.298 29.422 141.25 29.65 141.154C29.884 141.058 30.088 140.914 30.262 140.722L30.739 141.28C30.523 141.532 30.253 141.724 29.929 141.856C29.611 141.988 29.254 142.054 28.858 142.054ZM32.2448 142V137.23H33.0728V138.526L32.9918 138.202C33.1238 137.872 33.3458 137.62 33.6578 137.446C33.9698 137.272 34.3538 137.185 34.8098 137.185V138.022C34.7738 138.016 34.7378 138.013 34.7018 138.013C34.6718 138.013 34.6418 138.013 34.6118 138.013C34.1498 138.013 33.7838 138.151 33.5138 138.427C33.2438 138.703 33.1088 139.102 33.1088 139.624V142H32.2448ZM36.275 143.8C36.047 143.8 35.825 143.761 35.609 143.683C35.393 143.611 35.207 143.503 35.051 143.359L35.42 142.711C35.54 142.825 35.672 142.912 35.816 142.972C35.96 143.032 36.113 143.062 36.275 143.062C36.485 143.062 36.659 143.008 36.797 142.9C36.935 142.792 37.064 142.6 37.184 142.324L37.481 141.667L37.571 141.559L39.443 137.23H40.289L37.976 142.477C37.838 142.813 37.682 143.077 37.508 143.269C37.34 143.461 37.154 143.596 36.95 143.674C36.746 143.758 36.521 143.8 36.275 143.8ZM37.409 142.153L35.231 137.23H36.131L37.985 141.478L37.409 142.153ZM42.6844 142L45.5374 135.7H46.4284L49.2904 142H48.3454L45.7984 136.204H46.1584L43.6114 142H42.6844ZM43.8994 140.425L44.1424 139.705H47.6884L47.9494 140.425H43.8994ZM52.1392 142.054C51.6532 142.054 51.2182 141.949 50.8342 141.739C50.4562 141.529 50.1592 141.241 49.9432 140.875C49.7272 140.509 49.6192 140.089 49.6192 139.615C49.6192 139.141 49.7272 138.721 49.9432 138.355C50.1592 137.989 50.4562 137.704 50.8342 137.5C51.2182 137.29 51.6532 137.185 52.1392 137.185C52.5712 137.185 52.9552 137.272 53.2912 137.446C53.6332 137.614 53.8972 137.866 54.0832 138.202L53.4262 138.625C53.2702 138.391 53.0782 138.22 52.8502 138.112C52.6282 137.998 52.3882 137.941 52.1302 137.941C51.8182 137.941 51.5392 138.01 51.2932 138.148C51.0472 138.286 50.8522 138.481 50.7082 138.733C50.5642 138.979 50.4922 139.273 50.4922 139.615C50.4922 139.957 50.5642 140.254 50.7082 140.506C50.8522 140.758 51.0472 140.953 51.2932 141.091C51.5392 141.229 51.8182 141.298 52.1302 141.298C52.3882 141.298 52.6282 141.244 52.8502 141.136C53.0782 141.022 53.2702 140.848 53.4262 140.614L54.0832 141.028C53.8972 141.358 53.6332 141.613 53.2912 141.793C52.9552 141.967 52.5712 142.054 52.1392 142.054ZM56.9013 142.054C56.4213 142.054 56.0493 141.925 55.7853 141.667C55.5213 141.409 55.3893 141.04 55.3893 140.56V136.186H56.2533V140.524C56.2533 140.782 56.3163 140.98 56.4423 141.118C56.5743 141.256 56.7603 141.325 57.0003 141.325C57.2703 141.325 57.4953 141.25 57.6753 141.1L57.9453 141.721C57.8133 141.835 57.6543 141.919 57.4683 141.973C57.2883 142.027 57.0993 142.054 56.9013 142.054ZM54.5793 137.941V137.23H57.6213V137.941H54.5793ZM58.9899 142V137.23H59.8539V142H58.9899ZM59.4219 136.312C59.2539 136.312 59.1129 136.258 58.9989 136.15C58.8909 136.042 58.8369 135.91 58.8369 135.754C58.8369 135.592 58.8909 135.457 58.9989 135.349C59.1129 135.241 59.2539 135.187 59.4219 135.187C59.5899 135.187 59.7279 135.241 59.8359 135.349C59.9499 135.451 60.0069 135.58 60.0069 135.736C60.0069 135.898 59.9529 136.036 59.8449 136.15C59.7369 136.258 59.5959 136.312 59.4219 136.312ZM62.7546 142L60.6666 137.23H61.5666L63.4206 141.55H62.9886L64.8786 137.23H65.7246L63.6366 142H62.7546ZM68.5231 142.054C68.0131 142.054 67.5631 141.949 67.1731 141.739C66.7891 141.529 66.4891 141.241 66.2731 140.875C66.0631 140.509 65.9581 140.089 65.9581 139.615C65.9581 139.141 66.0601 138.721 66.2641 138.355C66.4741 137.989 66.7591 137.704 67.1191 137.5C67.4851 137.29 67.8961 137.185 68.3521 137.185C68.8141 137.185 69.2221 137.287 69.5761 137.491C69.9301 137.695 70.2061 137.983 70.4041 138.355C70.6081 138.721 70.7101 139.15 70.7101 139.642C70.7101 139.678 70.7071 139.72 70.7011 139.768C70.7011 139.816 70.6981 139.861 70.6921 139.903H66.6331V139.282H70.2421L69.8911 139.498C69.8971 139.192 69.8341 138.919 69.7021 138.679C69.5701 138.439 69.3871 138.253 69.1531 138.121C68.9251 137.983 68.6581 137.914 68.3521 137.914C68.0521 137.914 67.7851 137.983 67.5511 138.121C67.3171 138.253 67.1341 138.442 67.0021 138.688C66.8701 138.928 66.8041 139.204 66.8041 139.516V139.66C66.8041 139.978 66.8761 140.263 67.0201 140.515C67.1701 140.761 67.3771 140.953 67.6411 141.091C67.9051 141.229 68.2081 141.298 68.5501 141.298C68.8321 141.298 69.0871 141.25 69.3151 141.154C69.5491 141.058 69.7531 140.914 69.9271 140.722L70.4041 141.28C70.1881 141.532 69.9181 141.724 69.5941 141.856C69.2761 141.988 68.9191 142.054 68.5231 142.054Z" fill="white"/>
<path d="M78 142.63H87V133.63H78V142.63Z" fill="black"/>
<path d="M231.178 117.875V113.825H232.141V117.875H231.178ZM229.585 116.3V115.4H233.734V116.3H229.585ZM235.537 119V113.15L236.05 113.681H234.205V112.7H236.707V119H235.537Z" fill="white"/>
<defs>
<linearGradient id="paint0_linear_485_356" x1="168.5" y1="164" x2="168.5" y2="-4.11568e-06" gradientUnits="userSpaceOnUse">
<stop stop-color="#00989B"/>
<stop offset="1" stop-color="#005E78"/>
</linearGradient>
</defs>
</svg>
