<svg width="11" height="11" viewBox="0 0 11 11" fill="none" xmlns="http://www.w3.org/2000/svg">
<path d="M5.4998 0C3.39498 0 1.68262 1.71262 1.68262 3.81749C1.68262 5.84361 5.14601 10.5774 5.29348 10.7778L5.43111 10.9651C5.44721 10.9871 5.47284 11 5.4998 11C5.52718 11 5.55265 10.9871 5.56891 10.9651L5.70645 10.7778C5.85401 10.5774 9.31732 5.84361 9.31732 3.81749C9.31732 1.71262 7.60468 0 5.4998 0ZM5.4998 2.45007C6.25396 2.45007 6.86722 3.06335 6.86722 3.81749C6.86722 4.57124 6.25394 5.18491 5.4998 5.18491C4.74608 5.18491 4.13238 4.57124 4.13238 3.81749C4.13238 3.06335 4.74605 2.45007 5.4998 2.45007Z" fill="#F8B500"/>
</svg>
