<svg width="126" height="134" viewBox="0 0 126 134" fill="none" xmlns="http://www.w3.org/2000/svg">
<g clip-path="url(#clip0_258_407)">
<path d="M121.916 18.564H4.08353C1.82838 18.564 0 20.5087 0 22.9073V111.093C0 113.491 1.82838 115.436 4.08353 115.436H121.916C124.172 115.436 126 113.492 126 111.093V22.9073C126 20.5087 124.172 18.564 121.916 18.564ZM111.498 93.0814C113.227 94.6775 113.412 97.4621 111.912 99.3014C110.411 101.14 107.793 101.338 106.063 99.7411C104.991 98.7523 77.9576 73.7995 76.9159 72.838L65.7176 83.1745C64.9381 83.894 63.9691 84.2538 63 84.2538C62.0309 84.2538 61.0619 83.894 60.2824 83.1745L49.0841 72.838C48.0421 73.7998 21.0086 98.7523 19.9372 99.7411C18.2078 101.337 15.5892 101.141 14.0884 99.3014C12.5875 97.4621 12.7727 94.6775 14.5021 93.0814L42.759 66.9996L14.5021 40.9185C12.773 39.3223 12.5878 36.5377 14.0884 34.6985C15.5895 32.8596 18.2078 32.662 19.9372 34.2588C21.3386 35.5521 60.4557 71.6581 63 74.0065C65.2035 71.9727 104.544 35.6606 106.063 34.2588C107.792 32.6623 110.411 32.859 111.912 34.6985C113.412 36.5377 113.227 39.3226 111.498 40.9185L83.241 66.9996L111.498 93.0814Z" fill="white"/>
</g>
<defs>
<clipPath id="clip0_258_407">
<rect width="126" height="134" fill="white"/>
</clipPath>
</defs>
</svg>
