<svg width="150" height="150" viewBox="0 0 150 150" fill="none" xmlns="http://www.w3.org/2000/svg">
<path d="M0 35.3892V114.611H150V35.3892H0ZM46.8234 82.4386C47.8386 83.6087 48.6533 84.5592 49.248 85.2705L42.7179 89.5765L37.0023 80.1303C35.2824 83.2272 33.2781 86.473 31.0346 89.9514L24.5885 84.9536C26.6638 82.6583 28.791 80.4861 31.0346 78.3589C31.914 77.5247 32.4829 76.9558 32.6963 76.7553C31.9979 76.6195 29.9549 76.1603 26.5799 75.3199C24.1488 74.6991 22.5455 74.2918 21.776 73.9878L24.3816 66.4621C28.1121 67.9751 31.4227 69.6755 34.3062 71.4728C33.6402 66.8047 33.291 63.0028 33.291 60.0675H40.8038C40.8038 62.1429 40.416 65.9642 39.6528 71.518C40.2346 71.2917 41.4375 70.7486 43.3189 69.8563C45.8726 68.6924 48.2391 67.7033 50.4052 66.882L52.6745 74.6473C49.5129 75.3456 45.8469 76.0503 41.6833 76.7355L46.8234 82.4386ZM84.5948 82.458C85.6292 83.6153 86.4376 84.5592 87.0323 85.2899L80.5022 89.5959L74.7803 80.1435C73.0409 83.2404 71.0303 86.4733 68.7997 89.958L62.3794 84.9731C64.4418 82.6715 66.5753 80.499 68.8126 78.3718C69.6854 77.5376 70.2609 76.9816 70.4806 76.7553C69.7693 76.6261 67.7326 76.1606 64.3642 75.3199C61.9202 74.7057 60.3232 74.2918 59.5666 73.9878L62.1593 66.475C65.8898 67.9943 69.1938 69.6884 72.0839 71.4856C71.405 66.8239 71.0819 63.0223 71.0819 60.087H78.5818C78.5818 62.1561 78.2003 65.9771 77.4374 71.5375C78 71.3046 79.2221 70.7618 81.1035 69.8758C83.6638 68.7119 86.0237 67.7162 88.1832 66.8886L90.4462 74.6601C87.2909 75.3585 83.6123 76.0632 79.4741 76.7484L84.5948 82.458ZM122.379 82.458C123.388 83.6153 124.209 84.5592 124.804 85.2899L118.274 89.5959L112.565 80.1435C110.819 83.2404 108.841 86.4733 106.578 89.958L100.151 84.9731C102.194 82.6715 104.328 80.499 106.578 78.3718C107.463 77.5508 108.045 76.9816 108.259 76.7682C107.554 76.6324 105.491 76.1732 102.136 75.3265C99.711 74.7057 98.1075 74.2921 97.3512 73.9881L99.9502 66.4687C103.674 67.988 106.985 69.6755 109.862 71.4794C109.19 66.8176 108.866 63.016 108.866 60.0807H116.366C116.366 62.1498 115.965 65.9708 115.202 71.5312C115.784 71.2983 116.98 70.7489 118.862 69.8695C121.422 68.7056 123.788 67.7099 125.948 66.8823L128.224 74.6538C125.082 75.3456 121.377 76.0569 117.239 76.7358L122.379 82.458Z" fill="white"/>
</svg>
