<svg width="200" height="200" viewBox="0 0 200 200" fill="none" xmlns="http://www.w3.org/2000/svg">
<g clip-path="url(#clip0_38_376)">
<path d="M200 0H0V200H200V0Z" fill="white" fill-opacity="0.01"/>
<path d="M100 16.6666L121.889 32.6335L148.982 32.5819L157.305 58.3654L179.255 74.2487L170.833 100L179.255 125.751L157.305 141.635L148.982 167.418L121.889 167.367L100 183.333L78.1113 167.367L51.018 167.418L42.6947 141.635L20.7454 125.751L29.1667 100L20.7454 74.2487L42.6947 58.3654L51.018 32.5819L78.1113 32.6335L100 16.6666Z" fill="#F8B500"/>
<path fill-rule="evenodd" clip-rule="evenodd" d="M95.089 9.93423C98.0151 7.79975 101.985 7.79975 104.911 9.93423L124.598 24.295L148.966 24.2486C152.588 24.2417 155.8 26.5751 156.912 30.0219L164.399 53.212L184.14 67.4977C187.074 69.621 188.301 73.3965 187.175 76.839L179.601 100L187.175 123.161C188.301 126.604 187.074 130.379 184.14 132.502L164.399 146.788L156.912 169.978C155.8 173.425 152.588 175.758 148.966 175.751L124.598 175.705L104.911 190.066C101.985 192.2 98.0151 192.2 95.089 190.066L75.4019 175.705L51.0337 175.751C47.4118 175.758 44.2002 173.425 43.0876 169.978L35.6014 146.788L15.8599 132.502C12.9257 130.379 11.6989 126.604 12.8247 123.161L20.399 100L12.8247 76.839C11.6989 73.3965 12.9257 69.621 15.8599 67.4977L35.6014 53.212L43.0876 30.0219C44.2002 26.5751 47.4119 24.2417 51.0338 24.2486L75.4019 24.295L95.089 9.93423ZM100 26.9816L83.0223 39.366C81.5918 40.4095 79.866 40.9702 78.0954 40.9669L57.0808 40.9268L50.6249 60.9255C50.081 62.6105 49.0144 64.0785 47.5799 65.1166L30.5553 77.4362L37.0872 97.4098C37.6376 99.0928 37.6376 100.907 37.0872 102.59L30.5553 122.564L47.5799 134.883C49.0144 135.922 50.081 137.39 50.6249 139.075L57.0808 159.073L78.0955 159.033C79.8661 159.03 81.5918 159.591 83.0222 160.634L100 173.019L116.978 160.634C118.408 159.591 120.134 159.03 121.905 159.033L142.919 159.073L149.375 139.075C149.919 137.39 150.986 135.922 152.42 134.884L169.445 122.564L162.913 102.59C162.362 100.907 162.362 99.0928 162.913 97.4098L169.445 77.4362L152.42 65.1166C150.986 64.0785 149.919 62.6105 149.375 60.9255L142.919 40.9268L121.905 40.9669C120.134 40.9702 118.408 40.4095 116.978 39.366L100 26.9816Z" fill="#393E46"/>
<path fill-rule="evenodd" clip-rule="evenodd" d="M139.226 73.2742C142.48 76.5285 142.48 81.8049 139.226 85.0593L97.5592 126.726C94.3049 129.98 89.0285 129.98 85.7741 126.726L64.9408 105.893C61.6864 102.638 61.6864 97.3619 64.9408 94.1075C68.1951 90.8531 73.4715 90.8531 76.7259 94.1075L91.6667 109.048L127.441 73.2742C130.695 70.0198 135.972 70.0198 139.226 73.2742Z" fill="white"/>
</g>
<defs>
<clipPath id="clip0_38_376">
<rect width="200" height="200" fill="white"/>
</clipPath>
</defs>
</svg>
